<mxfile host="app.diagrams.net" agent="Mozilla/5.0 (Windows NT 10.0; Win64; x64) AppleWebKit/537.36 (KHTML, like Gecko) Chrome/136.0.0.0 Safari/537.36" version="26.3.0">
  <diagram name="Page-1" id="86zwo9feQJ7b7Mw2cn7H">
    <mxGraphModel dx="2422" dy="794" grid="1" gridSize="10" guides="1" tooltips="1" connect="1" arrows="1" fold="1" page="1" pageScale="1" pageWidth="850" pageHeight="1100" math="0" shadow="0">
      <root>
        <mxCell id="0" />
        <mxCell id="1" parent="0" />
        <UserObject label="" plantUmlData="{&quot;data&quot;:&quot;@startuml Cardiovascular Risk Assessment System\n\n!define LIGHTBLUE #ADD8E6\n!define LIGHTGREEN #90EE90\n!define LIGHTRED #FFA07A\n!define LIGHTYELLOW #FFFFE0\n!define LIGHTPURPLE #E6E6FA\n\nskinparam component {\n  BackgroundColor LIGHTBLUE\n  BorderColor #0000A0\n  ArrowColor black\n}\n\nskinparam rectangle {\n  BackgroundColor LIGHTGREEN\n  BorderColor #006400\n  ArrowColor black\n}\n\nskinparam database {\n  BackgroundColor LIGHTYELLOW\n  BorderColor #8B8000\n}\n\nskinparam cloud {\n  BackgroundColor LIGHTPURPLE\n  BorderColor #4B0082\n}\n\n&#39; Main components\ncomponent \&quot;Streamlit GUI\&quot; as GUI\n\npackage \&quot;Data Input\&quot; &lt;&lt;rectangle&gt;&gt; {\n  component \&quot;Retinal Image Upload\&quot; as ImgUpload\n  component \&quot;Clinical Data Form\&quot; as ClinicalForm\n}\n\npackage \&quot;Feature Extraction\&quot; &lt;&lt;rectangle&gt;&gt; {\n  component \&quot;Vessel Segmentation\\nModel (U-Net)\&quot; as VesselModel\n  component \&quot;Deep Feature Extractor\\n(EfficientNet)\&quot; as DeepModel\n}\n\npackage \&quot;Feature Processing\&quot; &lt;&lt;rectangle&gt;&gt; {\n  component \&quot;Vessel Feature\\nExtraction\&quot; as VesselFeatures\n  component \&quot;Feature Fusion\&quot; as FeatureFusion\n  component \&quot;Feature Scaling\&quot; as FeatureScaling\n}\n\npackage \&quot;Risk Prediction\&quot; &lt;&lt;rectangle&gt;&gt; {\n  component \&quot;Retinal Risk Model\\n(XGBoost)\&quot; as RetinalModel\n  component \&quot;Clinical Risk Model\\n(XGBoost)\&quot; as ClinicalModel\n  component \&quot;Risk Fusion System\&quot; as RiskFusion\n}\n\ncloud \&quot;Gemini LLM\&quot; as LLM\n\npackage \&quot;Output\&quot; &lt;&lt;rectangle&gt;&gt; {\n  component \&quot;Risk Assessment\\nVisualization\&quot; as Visualization\n  component \&quot;Personalized\\nRecommendations\&quot; as Recommendations\n}\n\ndatabase \&quot;Models\&quot; as ModelsDB\n\n&#39; Flow between components\nImgUpload --&gt; VesselModel : \&quot;Preprocessed Image\&quot;\nClinicalForm --&gt; ClinicalModel : \&quot;Clinical Parameters\&quot;\n\nVesselModel --&gt; VesselFeatures : \&quot;Vessel Segmentation Mask\&quot;\nImgUpload --&gt; DeepModel : \&quot;Preprocessed Image\&quot;\nDeepModel --&gt; FeatureFusion : \&quot;Deep Features (512-dim)\&quot;\nVesselFeatures --&gt; FeatureFusion : \&quot;Vessel Features\&quot;\nFeatureFusion --&gt; FeatureScaling : \&quot;Combined Features\&quot;\nFeatureScaling --&gt; RetinalModel : \&quot;Scaled Features\&quot;\n\nRetinalModel --&gt; RiskFusion : \&quot;Retinal Risk Score\&quot;\nClinicalModel --&gt; RiskFusion : \&quot;Clinical Risk Score\&quot;\nRiskFusion --&gt; Visualization : \&quot;Combined Risk Score\&quot;\nRiskFusion --&gt; LLM : \&quot;Risk Assessment\&quot;\nLLM --&gt; Recommendations : \&quot;Personalized Advice\&quot;\n\nVisualization --&gt; GUI : \&quot;Risk Visualizations\&quot;\nRecommendations --&gt; GUI : \&quot;Health Recommendations\&quot;\n\nModelsDB --&gt; VesselModel : \&quot;Load Model\&quot;\nModelsDB --&gt; RetinalModel : \&quot;Load Model\&quot;\nModelsDB --&gt; ClinicalModel : \&quot;Load Model\&quot;\nModelsDB --&gt; FeatureScaling : \&quot;Load Scalers\&quot;\n\n&#39; Notes explaining key components\nnote right of FeatureFusion\n  Combines vessel morphology features \n  (density, tortuosity, caliber, etc.)\n  with deep learned features\nend note\n\nnote right of RiskFusion\n  Weighted combination of:\n  - Retinal Risk (40%)\n  - Clinical Risk (60%)\n  Based on model performance\nend note\n\nnote bottom of LLM\n  Gemini 2.0 Flash analyzes risk\n  factors and creates personalized\n  health recommendations\nend note\n\n@enduml\n&quot;,&quot;format&quot;:&quot;svg&quot;}" id="g8C-u5plMpkgi0PgWcmV-1">
          <mxCell style="shape=image;noLabel=1;verticalAlign=top;aspect=fixed;imageAspect=0;image=data:image/svg+xml,PHN2ZyB4bWxucz0iaHR0cDovL3d3dy53My5vcmcvMjAwMC9zdmciIHhtbG5zOnhsaW5rPSJodHRwOi8vd3d3LnczLm9yZy8xOTk5L3hsaW5rIiBjb250ZW50U3R5bGVUeXBlPSJ0ZXh0L2NzcyIgZGF0YS1kaWFncmFtLXR5cGU9IkRFU0NSSVBUSU9OIiBoZWlnaHQ9IjE0MTZweCIgcHJlc2VydmVBc3BlY3RSYXRpbz0ibm9uZSIgc3R5bGU9IndpZHRoOjExNDhweDtoZWlnaHQ6MTQxNnB4O2JhY2tncm91bmQ6I0ZGRkZGRjsiIHZlcnNpb249IjEuMSIgdmlld0JveD0iMCAwIDExNDggMTQxNiIgd2lkdGg9IjExNDhweCIgem9vbUFuZFBhbj0ibWFnbmlmeSI+PGRlZnMvPjxnPjwhLS1jbHVzdGVyIERhdGEgSW5wdXQtLT48ZyBjbGFzcz0iY2x1c3RlciIgZGF0YS1lbnRpdHk9IkRhdGEgSW5wdXQiIGRhdGEtc291cmNlLWxpbmU9IjMyIiBkYXRhLXVpZD0iZW50MDAwMyIgaWQ9ImNsdXN0ZXJfRGF0YSBJbnB1dCI+PHBhdGggZD0iTTQ0Ny41LDYgTDUxOC41LDYgQTMuNzUsMy43NSAwIDAgMSA1MjEsOC41IEw1MjgsMjYuOTg0NCBMODU1LjUsMjYuOTg0NCBBMi41LDIuNSAwIDAgMSA4NTgsMjkuNDg0NCBMODU4LDExMi41IEEyLjUsMi41IDAgMCAxIDg1NS41LDExNSBMNDQ3LjUsMTE1IEEyLjUsMi41IDAgMCAxIDQ0NSwxMTIuNSBMNDQ1LDguNSBBMi41LDIuNSAwIDAgMSA0NDcuNSw2IiBmaWxsPSJub25lIiBzdHlsZT0ic3Ryb2tlOiMwMDAwMDA7c3Ryb2tlLXdpZHRoOjEuNTsiLz48bGluZSBzdHlsZT0ic3Ryb2tlOiMwMDAwMDA7c3Ryb2tlLXdpZHRoOjEuNTsiIHgxPSI0NDUiIHgyPSI1MjgiIHkxPSIyNi45ODQ0IiB5Mj0iMjYuOTg0NCIvPjx0ZXh0IGZpbGw9IiMwMDAwMDAiIGZvbnQtZmFtaWx5PSJzYW5zLXNlcmlmIiBmb250LXNpemU9IjE0IiBmb250LXdlaWdodD0iYm9sZCIgbGVuZ3RoQWRqdXN0PSJzcGFjaW5nIiB0ZXh0TGVuZ3RoPSI3MCIgeD0iNDQ5IiB5PSIyMS4yMzQ0Ij5EYXRhIElucHV0PC90ZXh0Pjx0ZXh0IGZpbGw9IiMwMDAwMDAiIGZvbnQtZmFtaWx5PSJzYW5zLXNlcmlmIiBmb250LXNpemU9IjE0IiBmb250LXN0eWxlPSJpdGFsaWMiIGxlbmd0aEFkanVzdD0ic3BhY2luZyIgdGV4dExlbmd0aD0iNzciIHg9IjYxNyIgeT0iNDIuMjE4OCI+JiMxNzE7cmVjdGFuZ2xlJiMxODc7PC90ZXh0PjwvZz48IS0tY2x1c3RlciBGZWF0dXJlIEV4dHJhY3Rpb24tLT48ZyBjbGFzcz0iY2x1c3RlciIgZGF0YS1lbnRpdHk9IkZlYXR1cmUgRXh0cmFjdGlvbiIgZGF0YS1zb3VyY2UtbGluZT0iMzciIGRhdGEtdWlkPSJlbnQwMDA2IiBpZD0iY2x1c3Rlcl9GZWF0dXJlIEV4dHJhY3Rpb24iPjxwYXRoIGQ9Ik0yMzEuNSwxNjIgTDM1OC41LDE2MiBBMy43NSwzLjc1IDAgMCAxIDM2MSwxNjQuNSBMMzY4LDE4Mi45ODQ0IEw2NjEuNSwxODIuOTg0NCBBMi41LDIuNSAwIDAgMSA2NjQsMTg1LjQ4NDQgTDY2NCwyODMuNSBBMi41LDIuNSAwIDAgMSA2NjEuNSwyODYgTDIzMS41LDI4NiBBMi41LDIuNSAwIDAgMSAyMjksMjgzLjUgTDIyOSwxNjQuNSBBMi41LDIuNSAwIDAgMSAyMzEuNSwxNjIiIGZpbGw9Im5vbmUiIHN0eWxlPSJzdHJva2U6IzAwMDAwMDtzdHJva2Utd2lkdGg6MS41OyIvPjxsaW5lIHN0eWxlPSJzdHJva2U6IzAwMDAwMDtzdHJva2Utd2lkdGg6MS41OyIgeDE9IjIyOSIgeDI9IjM2OCIgeTE9IjE4Mi45ODQ0IiB5Mj0iMTgyLjk4NDQiLz48dGV4dCBmaWxsPSIjMDAwMDAwIiBmb250LWZhbWlseT0ic2Fucy1zZXJpZiIgZm9udC1zaXplPSIxNCIgZm9udC13ZWlnaHQ9ImJvbGQiIGxlbmd0aEFkanVzdD0ic3BhY2luZyIgdGV4dExlbmd0aD0iMTI2IiB4PSIyMzMiIHk9IjE3Ny4yMzQ0Ij5GZWF0dXJlIEV4dHJhY3Rpb248L3RleHQ+PHRleHQgZmlsbD0iIzAwMDAwMCIgZm9udC1mYW1pbHk9InNhbnMtc2VyaWYiIGZvbnQtc2l6ZT0iMTQiIGZvbnQtc3R5bGU9Iml0YWxpYyIgbGVuZ3RoQWRqdXN0PSJzcGFjaW5nIiB0ZXh0TGVuZ3RoPSI3NyIgeD0iNDEyIiB5PSIxOTguMjE4OCI+JiMxNzE7cmVjdGFuZ2xlJiMxODc7PC90ZXh0PjwvZz48IS0tY2x1c3RlciBGZWF0dXJlIFByb2Nlc3NpbmctLT48ZyBjbGFzcz0iY2x1c3RlciIgZGF0YS1lbnRpdHk9IkZlYXR1cmUgUHJvY2Vzc2luZyIgZGF0YS1zb3VyY2UtbGluZT0iNDIiIGRhdGEtdWlkPSJlbnQwMDA5IiBpZD0iY2x1c3Rlcl9GZWF0dXJlIFByb2Nlc3NpbmciPjxwYXRoIGQ9Ik01MTQuNSwzMzMgTDY0MS41LDMzMyBBMy43NSwzLjc1IDAgMCAxIDY0NCwzMzUuNSBMNjUxLDM1My45ODQ0IEw2ODguNSwzNTMuOTg0NCBBMi41LDIuNSAwIDAgMSA2OTEsMzU2LjQ4NDQgTDY5MSw3MDEuNSBBMi41LDIuNSAwIDAgMSA2ODguNSw3MDQgTDUxNC41LDcwNCBBMi41LDIuNSAwIDAgMSA1MTIsNzAxLjUgTDUxMiwzMzUuNSBBMi41LDIuNSAwIDAgMSA1MTQuNSwzMzMiIGZpbGw9Im5vbmUiIHN0eWxlPSJzdHJva2U6IzAwMDAwMDtzdHJva2Utd2lkdGg6MS41OyIvPjxsaW5lIHN0eWxlPSJzdHJva2U6IzAwMDAwMDtzdHJva2Utd2lkdGg6MS41OyIgeDE9IjUxMiIgeDI9IjY1MSIgeTE9IjM1My45ODQ0IiB5Mj0iMzUzLjk4NDQiLz48dGV4dCBmaWxsPSIjMDAwMDAwIiBmb250LWZhbWlseT0ic2Fucy1zZXJpZiIgZm9udC1zaXplPSIxNCIgZm9udC13ZWlnaHQ9ImJvbGQiIGxlbmd0aEFkanVzdD0ic3BhY2luZyIgdGV4dExlbmd0aD0iMTI2IiB4PSI1MTYiIHk9IjM0OC4yMzQ0Ij5GZWF0dXJlIFByb2Nlc3Npbmc8L3RleHQ+PHRleHQgZmlsbD0iIzAwMDAwMCIgZm9udC1mYW1pbHk9InNhbnMtc2VyaWYiIGZvbnQtc2l6ZT0iMTQiIGZvbnQtc3R5bGU9Iml0YWxpYyIgbGVuZ3RoQWRqdXN0PSJzcGFjaW5nIiB0ZXh0TGVuZ3RoPSI3NyIgeD0iNTY3IiB5PSIzNjkuMjE4OCI+JiMxNzE7cmVjdGFuZ2xlJiMxODc7PC90ZXh0PjwvZz48IS0tY2x1c3RlciBSaXNrIFByZWRpY3Rpb24tLT48ZyBjbGFzcz0iY2x1c3RlciIgZGF0YS1lbnRpdHk9IlJpc2sgUHJlZGljdGlvbiIgZGF0YS1zb3VyY2UtbGluZT0iNDgiIGRhdGEtdWlkPSJlbnQwMDEzIiBpZD0iY2x1c3Rlcl9SaXNrIFByZWRpY3Rpb24iPjxwYXRoIGQ9Ik0yNDUuNSw3NTEgTDM1MS41LDc1MSBBMy43NSwzLjc1IDAgMCAxIDM1NCw3NTMuNSBMMzYxLDc3MS45ODQ0IEw2NDcuNSw3NzEuOTg0NCBBMi41LDIuNSAwIDAgMSA2NTAsNzc0LjQ4NDQgTDY1MCwxMDAzIEEyLjUsMi41IDAgMCAxIDY0Ny41LDEwMDUuNSBMMjQ1LjUsMTAwNS41IEEyLjUsMi41IDAgMCAxIDI0MywxMDAzIEwyNDMsNzUzLjUgQTIuNSwyLjUgMCAwIDEgMjQ1LjUsNzUxIiBmaWxsPSJub25lIiBzdHlsZT0ic3Ryb2tlOiMwMDAwMDA7c3Ryb2tlLXdpZHRoOjEuNTsiLz48bGluZSBzdHlsZT0ic3Ryb2tlOiMwMDAwMDA7c3Ryb2tlLXdpZHRoOjEuNTsiIHgxPSIyNDMiIHgyPSIzNjEiIHkxPSI3NzEuOTg0NCIgeTI9Ijc3MS45ODQ0Ii8+PHRleHQgZmlsbD0iIzAwMDAwMCIgZm9udC1mYW1pbHk9InNhbnMtc2VyaWYiIGZvbnQtc2l6ZT0iMTQiIGZvbnQtd2VpZ2h0PSJib2xkIiBsZW5ndGhBZGp1c3Q9InNwYWNpbmciIHRleHRMZW5ndGg9IjEwNSIgeD0iMjQ3IiB5PSI3NjYuMjM0NCI+UmlzayBQcmVkaWN0aW9uPC90ZXh0Pjx0ZXh0IGZpbGw9IiMwMDAwMDAiIGZvbnQtZmFtaWx5PSJzYW5zLXNlcmlmIiBmb250LXNpemU9IjE0IiBmb250LXN0eWxlPSJpdGFsaWMiIGxlbmd0aEFkanVzdD0ic3BhY2luZyIgdGV4dExlbmd0aD0iNzciIHg9IjQxMiIgeT0iNzg3LjIxODgiPiYjMTcxO3JlY3RhbmdsZSYjMTg3OzwvdGV4dD48L2c+PCEtLWNsdXN0ZXIgT3V0cHV0LS0+PGcgY2xhc3M9ImNsdXN0ZXIiIGRhdGEtZW50aXR5PSJPdXRwdXQiIGRhdGEtc291cmNlLWxpbmU9IjU2IiBkYXRhLXVpZD0iZW50MDAxOCIgaWQ9ImNsdXN0ZXJfT3V0cHV0Ij48cGF0aCBkPSJNMzMxLjUsMTE4MSBMMzc0LjUsMTE4MSBBMy43NSwzLjc1IDAgMCAxIDM3NywxMTgzLjUgTDM4NCwxMjAxLjk4NDQgTDY4NC41LDEyMDEuOTg0NCBBMi41LDIuNSAwIDAgMSA2ODcsMTIwNC40ODQ0IEw2ODcsMTMwMi41IEEyLjUsMi41IDAgMCAxIDY4NC41LDEzMDUgTDMzMS41LDEzMDUgQTIuNSwyLjUgMCAwIDEgMzI5LDEzMDIuNSBMMzI5LDExODMuNSBBMi41LDIuNSAwIDAgMSAzMzEuNSwxMTgxIiBmaWxsPSJub25lIiBzdHlsZT0ic3Ryb2tlOiMwMDAwMDA7c3Ryb2tlLXdpZHRoOjEuNTsiLz48bGluZSBzdHlsZT0ic3Ryb2tlOiMwMDAwMDA7c3Ryb2tlLXdpZHRoOjEuNTsiIHgxPSIzMjkiIHgyPSIzODQiIHkxPSIxMjAxLjk4NDQiIHkyPSIxMjAxLjk4NDQiLz48dGV4dCBmaWxsPSIjMDAwMDAwIiBmb250LWZhbWlseT0ic2Fucy1zZXJpZiIgZm9udC1zaXplPSIxNCIgZm9udC13ZWlnaHQ9ImJvbGQiIGxlbmd0aEFkanVzdD0ic3BhY2luZyIgdGV4dExlbmd0aD0iNDIiIHg9IjMzMyIgeT0iMTE5Ni4yMzQ0Ij5PdXRwdXQ8L3RleHQ+PHRleHQgZmlsbD0iIzAwMDAwMCIgZm9udC1mYW1pbHk9InNhbnMtc2VyaWYiIGZvbnQtc2l6ZT0iMTQiIGZvbnQtc3R5bGU9Iml0YWxpYyIgbGVuZ3RoQWRqdXN0PSJzcGFjaW5nIiB0ZXh0TGVuZ3RoPSI3NyIgeD0iNDczLjUiIHk9IjEyMTcuMjE4OCI+JiMxNzE7cmVjdGFuZ2xlJiMxODc7PC90ZXh0PjwvZz48IS0tZW50aXR5IEltZ1VwbG9hZC0tPjxnIGNsYXNzPSJlbnRpdHkiIGRhdGEtZW50aXR5PSJJbWdVcGxvYWQiIGRhdGEtc291cmNlLWxpbmU9IjMzIiBkYXRhLXVpZD0iZW50MDAwNCIgaWQ9ImVudGl0eV9JbWdVcGxvYWQiPjxyZWN0IGZpbGw9IiNBREQ4RTYiIGhlaWdodD0iNDQuOTg0NCIgcng9IjIuNSIgcnk9IjIuNSIgc3R5bGU9InN0cm9rZTojMDAwMEEwO3N0cm9rZS13aWR0aDowLjU7IiB3aWR0aD0iMTgwIiB4PSI0NjEiIHk9IjU0Ii8+PHJlY3QgZmlsbD0iI0FERDhFNiIgaGVpZ2h0PSIxMCIgc3R5bGU9InN0cm9rZTojMDAwMEEwO3N0cm9rZS13aWR0aDowLjU7IiB3aWR0aD0iMTUiIHg9IjYyMSIgeT0iNTkiLz48cmVjdCBmaWxsPSIjQUREOEU2IiBoZWlnaHQ9IjIiIHN0eWxlPSJzdHJva2U6IzAwMDBBMDtzdHJva2Utd2lkdGg6MC41OyIgd2lkdGg9IjQiIHg9IjYxOSIgeT0iNjEiLz48cmVjdCBmaWxsPSIjQUREOEU2IiBoZWlnaHQ9IjIiIHN0eWxlPSJzdHJva2U6IzAwMDBBMDtzdHJva2Utd2lkdGg6MC41OyIgd2lkdGg9IjQiIHg9IjYxOSIgeT0iNjUiLz48dGV4dCBmaWxsPSIjMDAwMDAwIiBmb250LWZhbWlseT0ic2Fucy1zZXJpZiIgZm9udC1zaXplPSIxNCIgbGVuZ3RoQWRqdXN0PSJzcGFjaW5nIiB0ZXh0TGVuZ3RoPSIxNDAiIHg9IjQ3NiIgeT0iODcuMjM0NCI+UmV0aW5hbCBJbWFnZSBVcGxvYWQ8L3RleHQ+PC9nPjwhLS1lbnRpdHkgQ2xpbmljYWxGb3JtLS0+PGcgY2xhc3M9ImVudGl0eSIgZGF0YS1lbnRpdHk9IkNsaW5pY2FsRm9ybSIgZGF0YS1zb3VyY2UtbGluZT0iMzQiIGRhdGEtdWlkPSJlbnQwMDA1IiBpZD0iZW50aXR5X0NsaW5pY2FsRm9ybSI+PHJlY3QgZmlsbD0iI0FERDhFNiIgaGVpZ2h0PSI0NC45ODQ0IiByeD0iMi41IiByeT0iMi41IiBzdHlsZT0ic3Ryb2tlOiMwMDAwQTA7c3Ryb2tlLXdpZHRoOjAuNTsiIHdpZHRoPSIxNjYiIHg9IjY3NiIgeT0iNTQiLz48cmVjdCBmaWxsPSIjQUREOEU2IiBoZWlnaHQ9IjEwIiBzdHlsZT0ic3Ryb2tlOiMwMDAwQTA7c3Ryb2tlLXdpZHRoOjAuNTsiIHdpZHRoPSIxNSIgeD0iODIyIiB5PSI1OSIvPjxyZWN0IGZpbGw9IiNBREQ4RTYiIGhlaWdodD0iMiIgc3R5bGU9InN0cm9rZTojMDAwMEEwO3N0cm9rZS13aWR0aDowLjU7IiB3aWR0aD0iNCIgeD0iODIwIiB5PSI2MSIvPjxyZWN0IGZpbGw9IiNBREQ4RTYiIGhlaWdodD0iMiIgc3R5bGU9InN0cm9rZTojMDAwMEEwO3N0cm9rZS13aWR0aDowLjU7IiB3aWR0aD0iNCIgeD0iODIwIiB5PSI2NSIvPjx0ZXh0IGZpbGw9IiMwMDAwMDAiIGZvbnQtZmFtaWx5PSJzYW5zLXNlcmlmIiBmb250LXNpemU9IjE0IiBsZW5ndGhBZGp1c3Q9InNwYWNpbmciIHRleHRMZW5ndGg9IjEyNiIgeD0iNjkxIiB5PSI4Ny4yMzQ0Ij5DbGluaWNhbCBEYXRhIEZvcm08L3RleHQ+PC9nPjwhLS1lbnRpdHkgVmVzc2VsTW9kZWwtLT48ZyBjbGFzcz0iZW50aXR5IiBkYXRhLWVudGl0eT0iVmVzc2VsTW9kZWwiIGRhdGEtc291cmNlLWxpbmU9IjM4IiBkYXRhLXVpZD0iZW50MDAwNyIgaWQ9ImVudGl0eV9WZXNzZWxNb2RlbCI+PHJlY3QgZmlsbD0iI0FERDhFNiIgaGVpZ2h0PSI1OS45Njg4IiByeD0iMi41IiByeT0iMi41IiBzdHlsZT0ic3Ryb2tlOiMwMDAwQTA7c3Ryb2tlLXdpZHRoOjAuNTsiIHdpZHRoPSIxNzMiIHg9IjI0NS41IiB5PSIyMTAiLz48cmVjdCBmaWxsPSIjQUREOEU2IiBoZWlnaHQ9IjEwIiBzdHlsZT0ic3Ryb2tlOiMwMDAwQTA7c3Ryb2tlLXdpZHRoOjAuNTsiIHdpZHRoPSIxNSIgeD0iMzk4LjUiIHk9IjIxNSIvPjxyZWN0IGZpbGw9IiNBREQ4RTYiIGhlaWdodD0iMiIgc3R5bGU9InN0cm9rZTojMDAwMEEwO3N0cm9rZS13aWR0aDowLjU7IiB3aWR0aD0iNCIgeD0iMzk2LjUiIHk9IjIxNyIvPjxyZWN0IGZpbGw9IiNBREQ4RTYiIGhlaWdodD0iMiIgc3R5bGU9InN0cm9rZTojMDAwMEEwO3N0cm9rZS13aWR0aDowLjU7IiB3aWR0aD0iNCIgeD0iMzk2LjUiIHk9IjIyMSIvPjx0ZXh0IGZpbGw9IiMwMDAwMDAiIGZvbnQtZmFtaWx5PSJzYW5zLXNlcmlmIiBmb250LXNpemU9IjE0IiBsZW5ndGhBZGp1c3Q9InNwYWNpbmciIHRleHRMZW5ndGg9IjEzMyIgeD0iMjYwLjUiIHk9IjI0My4yMzQ0Ij5WZXNzZWwgU2VnbWVudGF0aW9uPC90ZXh0Pjx0ZXh0IGZpbGw9IiMwMDAwMDAiIGZvbnQtZmFtaWx5PSJzYW5zLXNlcmlmIiBmb250LXNpemU9IjE0IiBsZW5ndGhBZGp1c3Q9InNwYWNpbmciIHRleHRMZW5ndGg9IjkxIiB4PSIyNjAuNSIgeT0iMjU4LjIxODgiPk1vZGVsIChVLU5ldCk8L3RleHQ+PC9nPjwhLS1lbnRpdHkgRGVlcE1vZGVsLS0+PGcgY2xhc3M9ImVudGl0eSIgZGF0YS1lbnRpdHk9IkRlZXBNb2RlbCIgZGF0YS1zb3VyY2UtbGluZT0iMzkiIGRhdGEtdWlkPSJlbnQwMDA4IiBpZD0iZW50aXR5X0RlZXBNb2RlbCI+PHJlY3QgZmlsbD0iI0FERDhFNiIgaGVpZ2h0PSI1OS45Njg4IiByeD0iMi41IiByeT0iMi41IiBzdHlsZT0ic3Ryb2tlOiMwMDAwQTA7c3Ryb2tlLXdpZHRoOjAuNTsiIHdpZHRoPSIxOTQiIHg9IjQ1NCIgeT0iMjEwIi8+PHJlY3QgZmlsbD0iI0FERDhFNiIgaGVpZ2h0PSIxMCIgc3R5bGU9InN0cm9rZTojMDAwMEEwO3N0cm9rZS13aWR0aDowLjU7IiB3aWR0aD0iMTUiIHg9IjYyOCIgeT0iMjE1Ii8+PHJlY3QgZmlsbD0iI0FERDhFNiIgaGVpZ2h0PSIyIiBzdHlsZT0ic3Ryb2tlOiMwMDAwQTA7c3Ryb2tlLXdpZHRoOjAuNTsiIHdpZHRoPSI0IiB4PSI2MjYiIHk9IjIxNyIvPjxyZWN0IGZpbGw9IiNBREQ4RTYiIGhlaWdodD0iMiIgc3R5bGU9InN0cm9rZTojMDAwMEEwO3N0cm9rZS13aWR0aDowLjU7IiB3aWR0aD0iNCIgeD0iNjI2IiB5PSIyMjEiLz48dGV4dCBmaWxsPSIjMDAwMDAwIiBmb250LWZhbWlseT0ic2Fucy1zZXJpZiIgZm9udC1zaXplPSIxNCIgbGVuZ3RoQWRqdXN0PSJzcGFjaW5nIiB0ZXh0TGVuZ3RoPSIxNTQiIHg9IjQ2OSIgeT0iMjQzLjIzNDQiPkRlZXAgRmVhdHVyZSBFeHRyYWN0b3I8L3RleHQ+PHRleHQgZmlsbD0iIzAwMDAwMCIgZm9udC1mYW1pbHk9InNhbnMtc2VyaWYiIGZvbnQtc2l6ZT0iMTQiIGxlbmd0aEFkanVzdD0ic3BhY2luZyIgdGV4dExlbmd0aD0iOTgiIHg9IjQ2OSIgeT0iMjU4LjIxODgiPihFZmZpY2llbnROZXQpPC90ZXh0PjwvZz48IS0tZW50aXR5IFZlc3NlbEZlYXR1cmVzLS0+PGcgY2xhc3M9ImVudGl0eSIgZGF0YS1lbnRpdHk9IlZlc3NlbEZlYXR1cmVzIiBkYXRhLXNvdXJjZS1saW5lPSI0MyIgZGF0YS11aWQ9ImVudDAwMTAiIGlkPSJlbnRpdHlfVmVzc2VsRmVhdHVyZXMiPjxyZWN0IGZpbGw9IiNBREQ4RTYiIGhlaWdodD0iNTkuOTY4OCIgcng9IjIuNSIgcnk9IjIuNSIgc3R5bGU9InN0cm9rZTojMDAwMEEwO3N0cm9rZS13aWR0aDowLjU7IiB3aWR0aD0iMTM4IiB4PSI1MzciIHk9IjM4MSIvPjxyZWN0IGZpbGw9IiNBREQ4RTYiIGhlaWdodD0iMTAiIHN0eWxlPSJzdHJva2U6IzAwMDBBMDtzdHJva2Utd2lkdGg6MC41OyIgd2lkdGg9IjE1IiB4PSI2NTUiIHk9IjM4NiIvPjxyZWN0IGZpbGw9IiNBREQ4RTYiIGhlaWdodD0iMiIgc3R5bGU9InN0cm9rZTojMDAwMEEwO3N0cm9rZS13aWR0aDowLjU7IiB3aWR0aD0iNCIgeD0iNjUzIiB5PSIzODgiLz48cmVjdCBmaWxsPSIjQUREOEU2IiBoZWlnaHQ9IjIiIHN0eWxlPSJzdHJva2U6IzAwMDBBMDtzdHJva2Utd2lkdGg6MC41OyIgd2lkdGg9IjQiIHg9IjY1MyIgeT0iMzkyIi8+PHRleHQgZmlsbD0iIzAwMDAwMCIgZm9udC1mYW1pbHk9InNhbnMtc2VyaWYiIGZvbnQtc2l6ZT0iMTQiIGxlbmd0aEFkanVzdD0ic3BhY2luZyIgdGV4dExlbmd0aD0iOTgiIHg9IjU1MiIgeT0iNDE0LjIzNDQiPlZlc3NlbCBGZWF0dXJlPC90ZXh0Pjx0ZXh0IGZpbGw9IiMwMDAwMDAiIGZvbnQtZmFtaWx5PSJzYW5zLXNlcmlmIiBmb250LXNpemU9IjE0IiBsZW5ndGhBZGp1c3Q9InNwYWNpbmciIHRleHRMZW5ndGg9IjcwIiB4PSI1NTIiIHk9IjQyOS4yMTg4Ij5FeHRyYWN0aW9uPC90ZXh0PjwvZz48IS0tZW50aXR5IEZlYXR1cmVGdXNpb24tLT48ZyBjbGFzcz0iZW50aXR5IiBkYXRhLWVudGl0eT0iRmVhdHVyZUZ1c2lvbiIgZGF0YS1zb3VyY2UtbGluZT0iNDQiIGRhdGEtdWlkPSJlbnQwMDExIiBpZD0iZW50aXR5X0ZlYXR1cmVGdXNpb24iPjxyZWN0IGZpbGw9IiNBREQ4RTYiIGhlaWdodD0iNDQuOTg0NCIgcng9IjIuNSIgcnk9IjIuNSIgc3R5bGU9InN0cm9rZTojMDAwMEEwO3N0cm9rZS13aWR0aDowLjU7IiB3aWR0aD0iMTM4IiB4PSI1MjgiIHk9IjUxOS41Ii8+PHJlY3QgZmlsbD0iI0FERDhFNiIgaGVpZ2h0PSIxMCIgc3R5bGU9InN0cm9rZTojMDAwMEEwO3N0cm9rZS13aWR0aDowLjU7IiB3aWR0aD0iMTUiIHg9IjY0NiIgeT0iNTI0LjUiLz48cmVjdCBmaWxsPSIjQUREOEU2IiBoZWlnaHQ9IjIiIHN0eWxlPSJzdHJva2U6IzAwMDBBMDtzdHJva2Utd2lkdGg6MC41OyIgd2lkdGg9IjQiIHg9IjY0NCIgeT0iNTI2LjUiLz48cmVjdCBmaWxsPSIjQUREOEU2IiBoZWlnaHQ9IjIiIHN0eWxlPSJzdHJva2U6IzAwMDBBMDtzdHJva2Utd2lkdGg6MC41OyIgd2lkdGg9IjQiIHg9IjY0NCIgeT0iNTMwLjUiLz48dGV4dCBmaWxsPSIjMDAwMDAwIiBmb250LWZhbWlseT0ic2Fucy1zZXJpZiIgZm9udC1zaXplPSIxNCIgbGVuZ3RoQWRqdXN0PSJzcGFjaW5nIiB0ZXh0TGVuZ3RoPSI5OCIgeD0iNTQzIiB5PSI1NTIuNzM0NCI+RmVhdHVyZSBGdXNpb248L3RleHQ+PC9nPjwhLS1lbnRpdHkgRmVhdHVyZVNjYWxpbmctLT48ZyBjbGFzcz0iZW50aXR5IiBkYXRhLWVudGl0eT0iRmVhdHVyZVNjYWxpbmciIGRhdGEtc291cmNlLWxpbmU9IjQ1IiBkYXRhLXVpZD0iZW50MDAxMiIgaWQ9ImVudGl0eV9GZWF0dXJlU2NhbGluZyI+PHJlY3QgZmlsbD0iI0FERDhFNiIgaGVpZ2h0PSI0NC45ODQ0IiByeD0iMi41IiByeT0iMi41IiBzdHlsZT0ic3Ryb2tlOiMwMDAwQTA7c3Ryb2tlLXdpZHRoOjAuNTsiIHdpZHRoPSIxNDUiIHg9IjUyOC41IiB5PSI2NDMiLz48cmVjdCBmaWxsPSIjQUREOEU2IiBoZWlnaHQ9IjEwIiBzdHlsZT0ic3Ryb2tlOiMwMDAwQTA7c3Ryb2tlLXdpZHRoOjAuNTsiIHdpZHRoPSIxNSIgeD0iNjUzLjUiIHk9IjY0OCIvPjxyZWN0IGZpbGw9IiNBREQ4RTYiIGhlaWdodD0iMiIgc3R5bGU9InN0cm9rZTojMDAwMEEwO3N0cm9rZS13aWR0aDowLjU7IiB3aWR0aD0iNCIgeD0iNjUxLjUiIHk9IjY1MCIvPjxyZWN0IGZpbGw9IiNBREQ4RTYiIGhlaWdodD0iMiIgc3R5bGU9InN0cm9rZTojMDAwMEEwO3N0cm9rZS13aWR0aDowLjU7IiB3aWR0aD0iNCIgeD0iNjUxLjUiIHk9IjY1NCIvPjx0ZXh0IGZpbGw9IiMwMDAwMDAiIGZvbnQtZmFtaWx5PSJzYW5zLXNlcmlmIiBmb250LXNpemU9IjE0IiBsZW5ndGhBZGp1c3Q9InNwYWNpbmciIHRleHRMZW5ndGg9IjEwNSIgeD0iNTQzLjUiIHk9IjY3Ni4yMzQ0Ij5GZWF0dXJlIFNjYWxpbmc8L3RleHQ+PC9nPjwhLS1lbnRpdHkgUmV0aW5hbE1vZGVsLS0+PGcgY2xhc3M9ImVudGl0eSIgZGF0YS1lbnRpdHk9IlJldGluYWxNb2RlbCIgZGF0YS1zb3VyY2UtbGluZT0iNDkiIGRhdGEtdWlkPSJlbnQwMDE0IiBpZD0iZW50aXR5X1JldGluYWxNb2RlbCI+PHJlY3QgZmlsbD0iI0FERDhFNiIgaGVpZ2h0PSI1OS45Njg4IiByeD0iMi41IiByeT0iMi41IiBzdHlsZT0ic3Ryb2tlOiMwMDAwQTA7c3Ryb2tlLXdpZHRoOjAuNTsiIHdpZHRoPSIxNjYiIHg9IjQ2OCIgeT0iNzk5Ii8+PHJlY3QgZmlsbD0iI0FERDhFNiIgaGVpZ2h0PSIxMCIgc3R5bGU9InN0cm9rZTojMDAwMEEwO3N0cm9rZS13aWR0aDowLjU7IiB3aWR0aD0iMTUiIHg9IjYxNCIgeT0iODA0Ii8+PHJlY3QgZmlsbD0iI0FERDhFNiIgaGVpZ2h0PSIyIiBzdHlsZT0ic3Ryb2tlOiMwMDAwQTA7c3Ryb2tlLXdpZHRoOjAuNTsiIHdpZHRoPSI0IiB4PSI2MTIiIHk9IjgwNiIvPjxyZWN0IGZpbGw9IiNBREQ4RTYiIGhlaWdodD0iMiIgc3R5bGU9InN0cm9rZTojMDAwMEEwO3N0cm9rZS13aWR0aDowLjU7IiB3aWR0aD0iNCIgeD0iNjEyIiB5PSI4MTAiLz48dGV4dCBmaWxsPSIjMDAwMDAwIiBmb250LWZhbWlseT0ic2Fucy1zZXJpZiIgZm9udC1zaXplPSIxNCIgbGVuZ3RoQWRqdXN0PSJzcGFjaW5nIiB0ZXh0TGVuZ3RoPSIxMjYiIHg9IjQ4MyIgeT0iODMyLjIzNDQiPlJldGluYWwgUmlzayBNb2RlbDwvdGV4dD48dGV4dCBmaWxsPSIjMDAwMDAwIiBmb250LWZhbWlseT0ic2Fucy1zZXJpZiIgZm9udC1zaXplPSIxNCIgbGVuZ3RoQWRqdXN0PSJzcGFjaW5nIiB0ZXh0TGVuZ3RoPSI2MyIgeD0iNDgzIiB5PSI4NDcuMjE4OCI+KFhHQm9vc3QpPC90ZXh0PjwvZz48IS0tZW50aXR5IENsaW5pY2FsTW9kZWwtLT48ZyBjbGFzcz0iZW50aXR5IiBkYXRhLWVudGl0eT0iQ2xpbmljYWxNb2RlbCIgZGF0YS1zb3VyY2UtbGluZT0iNTAiIGRhdGEtdWlkPSJlbnQwMDE1IiBpZD0iZW50aXR5X0NsaW5pY2FsTW9kZWwiPjxyZWN0IGZpbGw9IiNBREQ4RTYiIGhlaWdodD0iNTkuOTY4OCIgcng9IjIuNSIgcnk9IjIuNSIgc3R5bGU9InN0cm9rZTojMDAwMEEwO3N0cm9rZS13aWR0aDowLjU7IiB3aWR0aD0iMTczIiB4PSIyNTkuNSIgeT0iNzk5Ii8+PHJlY3QgZmlsbD0iI0FERDhFNiIgaGVpZ2h0PSIxMCIgc3R5bGU9InN0cm9rZTojMDAwMEEwO3N0cm9rZS13aWR0aDowLjU7IiB3aWR0aD0iMTUiIHg9IjQxMi41IiB5PSI4MDQiLz48cmVjdCBmaWxsPSIjQUREOEU2IiBoZWlnaHQ9IjIiIHN0eWxlPSJzdHJva2U6IzAwMDBBMDtzdHJva2Utd2lkdGg6MC41OyIgd2lkdGg9IjQiIHg9IjQxMC41IiB5PSI4MDYiLz48cmVjdCBmaWxsPSIjQUREOEU2IiBoZWlnaHQ9IjIiIHN0eWxlPSJzdHJva2U6IzAwMDBBMDtzdHJva2Utd2lkdGg6MC41OyIgd2lkdGg9IjQiIHg9IjQxMC41IiB5PSI4MTAiLz48dGV4dCBmaWxsPSIjMDAwMDAwIiBmb250LWZhbWlseT0ic2Fucy1zZXJpZiIgZm9udC1zaXplPSIxNCIgbGVuZ3RoQWRqdXN0PSJzcGFjaW5nIiB0ZXh0TGVuZ3RoPSIxMzMiIHg9IjI3NC41IiB5PSI4MzIuMjM0NCI+Q2xpbmljYWwgUmlzayBNb2RlbDwvdGV4dD48dGV4dCBmaWxsPSIjMDAwMDAwIiBmb250LWZhbWlseT0ic2Fucy1zZXJpZiIgZm9udC1zaXplPSIxNCIgbGVuZ3RoQWRqdXN0PSJzcGFjaW5nIiB0ZXh0TGVuZ3RoPSI2MyIgeD0iMjc0LjUiIHk9Ijg0Ny4yMTg4Ij4oWEdCb29zdCk8L3RleHQ+PC9nPjwhLS1lbnRpdHkgUmlza0Z1c2lvbi0tPjxnIGNsYXNzPSJlbnRpdHkiIGRhdGEtZW50aXR5PSJSaXNrRnVzaW9uIiBkYXRhLXNvdXJjZS1saW5lPSI1MSIgZGF0YS11aWQ9ImVudDAwMTYiIGlkPSJlbnRpdHlfUmlza0Z1c2lvbiI+PHJlY3QgZmlsbD0iI0FERDhFNiIgaGVpZ2h0PSI0NC45ODQ0IiByeD0iMi41IiByeT0iMi41IiBzdHlsZT0ic3Ryb2tlOiMwMDAwQTA7c3Ryb2tlLXdpZHRoOjAuNTsiIHdpZHRoPSIxNjYiIHg9IjQzMiIgeT0iOTQ0LjUiLz48cmVjdCBmaWxsPSIjQUREOEU2IiBoZWlnaHQ9IjEwIiBzdHlsZT0ic3Ryb2tlOiMwMDAwQTA7c3Ryb2tlLXdpZHRoOjAuNTsiIHdpZHRoPSIxNSIgeD0iNTc4IiB5PSI5NDkuNSIvPjxyZWN0IGZpbGw9IiNBREQ4RTYiIGhlaWdodD0iMiIgc3R5bGU9InN0cm9rZTojMDAwMEEwO3N0cm9rZS13aWR0aDowLjU7IiB3aWR0aD0iNCIgeD0iNTc2IiB5PSI5NTEuNSIvPjxyZWN0IGZpbGw9IiNBREQ4RTYiIGhlaWdodD0iMiIgc3R5bGU9InN0cm9rZTojMDAwMEEwO3N0cm9rZS13aWR0aDowLjU7IiB3aWR0aD0iNCIgeD0iNTc2IiB5PSI5NTUuNSIvPjx0ZXh0IGZpbGw9IiMwMDAwMDAiIGZvbnQtZmFtaWx5PSJzYW5zLXNlcmlmIiBmb250LXNpemU9IjE0IiBsZW5ndGhBZGp1c3Q9InNwYWNpbmciIHRleHRMZW5ndGg9IjEyNiIgeD0iNDQ3IiB5PSI5NzcuNzM0NCI+UmlzayBGdXNpb24gU3lzdGVtPC90ZXh0PjwvZz48IS0tZW50aXR5IFZpc3VhbGl6YXRpb24tLT48ZyBjbGFzcz0iZW50aXR5IiBkYXRhLWVudGl0eT0iVmlzdWFsaXphdGlvbiIgZGF0YS1zb3VyY2UtbGluZT0iNTciIGRhdGEtdWlkPSJlbnQwMDE5IiBpZD0iZW50aXR5X1Zpc3VhbGl6YXRpb24iPjxyZWN0IGZpbGw9IiNBREQ4RTYiIGhlaWdodD0iNTkuOTY4OCIgcng9IjIuNSIgcnk9IjIuNSIgc3R5bGU9InN0cm9rZTojMDAwMEEwO3N0cm9rZS13aWR0aDowLjU7IiB3aWR0aD0iMTQ1IiB4PSI1MjUuNSIgeT0iMTIyOSIvPjxyZWN0IGZpbGw9IiNBREQ4RTYiIGhlaWdodD0iMTAiIHN0eWxlPSJzdHJva2U6IzAwMDBBMDtzdHJva2Utd2lkdGg6MC41OyIgd2lkdGg9IjE1IiB4PSI2NTAuNSIgeT0iMTIzNCIvPjxyZWN0IGZpbGw9IiNBREQ4RTYiIGhlaWdodD0iMiIgc3R5bGU9InN0cm9rZTojMDAwMEEwO3N0cm9rZS13aWR0aDowLjU7IiB3aWR0aD0iNCIgeD0iNjQ4LjUiIHk9IjEyMzYiLz48cmVjdCBmaWxsPSIjQUREOEU2IiBoZWlnaHQ9IjIiIHN0eWxlPSJzdHJva2U6IzAwMDBBMDtzdHJva2Utd2lkdGg6MC41OyIgd2lkdGg9IjQiIHg9IjY0OC41IiB5PSIxMjQwIi8+PHRleHQgZmlsbD0iIzAwMDAwMCIgZm9udC1mYW1pbHk9InNhbnMtc2VyaWYiIGZvbnQtc2l6ZT0iMTQiIGxlbmd0aEFkanVzdD0ic3BhY2luZyIgdGV4dExlbmd0aD0iMTA1IiB4PSI1NDAuNSIgeT0iMTI2Mi4yMzQ0Ij5SaXNrIEFzc2Vzc21lbnQ8L3RleHQ+PHRleHQgZmlsbD0iIzAwMDAwMCIgZm9udC1mYW1pbHk9InNhbnMtc2VyaWYiIGZvbnQtc2l6ZT0iMTQiIGxlbmd0aEFkanVzdD0ic3BhY2luZyIgdGV4dExlbmd0aD0iOTEiIHg9IjU0MC41IiB5PSIxMjc3LjIxODgiPlZpc3VhbGl6YXRpb248L3RleHQ+PC9nPjwhLS1lbnRpdHkgUmVjb21tZW5kYXRpb25zLS0+PGcgY2xhc3M9ImVudGl0eSIgZGF0YS1lbnRpdHk9IlJlY29tbWVuZGF0aW9ucyIgZGF0YS1zb3VyY2UtbGluZT0iNTgiIGRhdGEtdWlkPSJlbnQwMDIwIiBpZD0iZW50aXR5X1JlY29tbWVuZGF0aW9ucyI+PHJlY3QgZmlsbD0iI0FERDhFNiIgaGVpZ2h0PSI1OS45Njg4IiByeD0iMi41IiByeT0iMi41IiBzdHlsZT0ic3Ryb2tlOiMwMDAwQTA7c3Ryb2tlLXdpZHRoOjAuNTsiIHdpZHRoPSIxNDUiIHg9IjM0NS41IiB5PSIxMjI5Ii8+PHJlY3QgZmlsbD0iI0FERDhFNiIgaGVpZ2h0PSIxMCIgc3R5bGU9InN0cm9rZTojMDAwMEEwO3N0cm9rZS13aWR0aDowLjU7IiB3aWR0aD0iMTUiIHg9IjQ3MC41IiB5PSIxMjM0Ii8+PHJlY3QgZmlsbD0iI0FERDhFNiIgaGVpZ2h0PSIyIiBzdHlsZT0ic3Ryb2tlOiMwMDAwQTA7c3Ryb2tlLXdpZHRoOjAuNTsiIHdpZHRoPSI0IiB4PSI0NjguNSIgeT0iMTIzNiIvPjxyZWN0IGZpbGw9IiNBREQ4RTYiIGhlaWdodD0iMiIgc3R5bGU9InN0cm9rZTojMDAwMEEwO3N0cm9rZS13aWR0aDowLjU7IiB3aWR0aD0iNCIgeD0iNDY4LjUiIHk9IjEyNDAiLz48dGV4dCBmaWxsPSIjMDAwMDAwIiBmb250LWZhbWlseT0ic2Fucy1zZXJpZiIgZm9udC1zaXplPSIxNCIgbGVuZ3RoQWRqdXN0PSJzcGFjaW5nIiB0ZXh0TGVuZ3RoPSI4NCIgeD0iMzYwLjUiIHk9IjEyNjIuMjM0NCI+UGVyc29uYWxpemVkPC90ZXh0Pjx0ZXh0IGZpbGw9IiMwMDAwMDAiIGZvbnQtZmFtaWx5PSJzYW5zLXNlcmlmIiBmb250LXNpemU9IjE0IiBsZW5ndGhBZGp1c3Q9InNwYWNpbmciIHRleHRMZW5ndGg9IjEwNSIgeD0iMzYwLjUiIHk9IjEyNzcuMjE4OCI+UmVjb21tZW5kYXRpb25zPC90ZXh0PjwvZz48IS0tZW50aXR5IEdVSS0tPjxnIGNsYXNzPSJlbnRpdHkiIGRhdGEtZW50aXR5PSJHVUkiIGRhdGEtc291cmNlLWxpbmU9IjMwIiBkYXRhLXVpZD0iZW50MDAwMiIgaWQ9ImVudGl0eV9HVUkiPjxyZWN0IGZpbGw9IiNBREQ4RTYiIGhlaWdodD0iNDQuOTg0NCIgcng9IjIuNSIgcnk9IjIuNSIgc3R5bGU9InN0cm9rZTojMDAwMEEwO3N0cm9rZS13aWR0aDowLjU7IiB3aWR0aD0iMTMxIiB4PSI0NDEuNSIgeT0iMTM2NiIvPjxyZWN0IGZpbGw9IiNBREQ4RTYiIGhlaWdodD0iMTAiIHN0eWxlPSJzdHJva2U6IzAwMDBBMDtzdHJva2Utd2lkdGg6MC41OyIgd2lkdGg9IjE1IiB4PSI1NTIuNSIgeT0iMTM3MSIvPjxyZWN0IGZpbGw9IiNBREQ4RTYiIGhlaWdodD0iMiIgc3R5bGU9InN0cm9rZTojMDAwMEEwO3N0cm9rZS13aWR0aDowLjU7IiB3aWR0aD0iNCIgeD0iNTUwLjUiIHk9IjEzNzMiLz48cmVjdCBmaWxsPSIjQUREOEU2IiBoZWlnaHQ9IjIiIHN0eWxlPSJzdHJva2U6IzAwMDBBMDtzdHJva2Utd2lkdGg6MC41OyIgd2lkdGg9IjQiIHg9IjU1MC41IiB5PSIxMzc3Ii8+PHRleHQgZmlsbD0iIzAwMDAwMCIgZm9udC1mYW1pbHk9InNhbnMtc2VyaWYiIGZvbnQtc2l6ZT0iMTQiIGxlbmd0aEFkanVzdD0ic3BhY2luZyIgdGV4dExlbmd0aD0iOTEiIHg9IjQ1Ni41IiB5PSIxMzk5LjIzNDQiPlN0cmVhbWxpdCBHVUk8L3RleHQ+PC9nPjwhLS1lbnRpdHkgTExNLS0+PGcgY2xhc3M9ImVudGl0eSIgZGF0YS1lbnRpdHk9IkxMTSIgZGF0YS1zb3VyY2UtbGluZT0iNTQiIGRhdGEtdWlkPSJlbnQwMDE3IiBpZD0iZW50aXR5X0xMTSI+PHBhdGggZD0iTTM3Ny45ODcyLDEwODQuNDkwNyBDMzgyLjIxNzMsMTA3OC4xNTEyIDM4Ni41MjM4LDEwNzkuMTQxMSAzOTAuNjU2MywxMDg0LjU5NTUgQzM5NC43MTc3LDEwNzcuMTY4OCAzOTkuNTUyMiwxMDc3LjQxMzggNDA0LjMzMjIsMTA4My44ODg1IEM0MDguNzcwNCwxMDc3LjY1ODMgNDEzLjk3MzgsMTA3Ny41NDA4IDQxOC40NDk1LDEwODMuODQ2MyBDNDIxLjkxODYsMTA3Ni40Nzk2IDQyNy4zMjYyLDEwNzUuMzE4NyA0MzIuMzYwNSwxMDgyLjMzMjIgQzQzNy42NzEyLDEwNzQuOTkwMyA0NDIuMzE5OCwxMDc2LjI4MjYgNDQ2Ljk0NjEsMTA4My4wNDAzIEM0NTEuOTU2MiwxMDc3Ljc5MjggNDU3LjMzOTYsMTA3OC4zNzk4IDQ2MC41MDU3LDEwODUuMTI1MiBDNDY4LjQzOTQsMTA4NS40MiA0NzMuNzc2MSwxMDkwLjQyNzUgNDY4Ljk0NjcsMTA5OC42NzM4IEM0NzIuNTI4OSwxMTA2LjI5MzggNDY4LjcwNjksMTExMi45Mzg5IDQ2MC4xMTE5LDExMTMuMTAyOSBDNDU2LjQyLDExMTkuMTMwMiA0NTEuNjE4NywxMTE4LjEzMTUgNDQ4LjA1NDcsMTExMi45NjUxIEM0NDMuNDY4NywxMTIwLjIxNTIgNDM4LjM3NjksMTEyMC44MTI0IDQzMi43MTc0LDExMTQuMTQ4NSBDNDI4Ljc3MDEsMTEyMS4xNTAyIDQyMy4zNDIyLDExMjEuNzE0OCA0MTguMTA5LDExMTUuNTc4MyBDNDEzLjI2MzcsMTEyMS4yODY4IDQwNy42MDA4LDExMjAuNDUxIDQwNC43NDQ3LDExMTMuNDgxNCBDNDAwLjQ4MzEsMTExOS41Nzc4IDM5Ni40ODg1LDExMTkuNzg5NSAzOTEuODI3NiwxMTEzLjkxMjEgQzM4Ni40ODM5LDExMTkuNTY2IDM4Mi4wNTczLDExMTkuNjA0OCAzNzcuODg2NCwxMTEyLjYxODcgQzM3MC41MzU0LDExMTAuNjk2MiAzNjguMjI1MywxMTA0LjQwNzcgMzc0LjU0ODQsMTA5OS4xMDcxIEMzNjkuMDcxNywxMDkyLjQ4NDcgMzcwLjI0MTYsMTA4OC4wMDIzIDM3Ny45ODcyLDEwODQuNDkwNyIgZmlsbD0iI0U2RTZGQSIgc3R5bGU9InN0cm9rZTojNEIwMDgyO3N0cm9rZS13aWR0aDowLjU7Ii8+PHRleHQgZmlsbD0iIzAwMDAwMCIgZm9udC1mYW1pbHk9InNhbnMtc2VyaWYiIGZvbnQtc2l6ZT0iMTQiIGxlbmd0aEFkanVzdD0ic3BhY2luZyIgdGV4dExlbmd0aD0iNzAiIHg9IjM4MyIgeT0iMTEwMy4yMzQ0Ij5HZW1pbmkgTExNPC90ZXh0PjwvZz48IS0tZW50aXR5IE1vZGVsc0RCLS0+PGcgY2xhc3M9ImVudGl0eSIgZGF0YS1lbnRpdHk9Ik1vZGVsc0RCIiBkYXRhLXNvdXJjZS1saW5lPSI2MSIgZGF0YS11aWQ9ImVudDAwMjEiIGlkPSJlbnRpdHlfTW9kZWxzREIiPjxwYXRoIGQ9Ik0xMjYsNjQuNSBDMTI2LDU0LjUgMTU3LDU0LjUgMTU3LDU0LjUgQzE1Nyw1NC41IDE4OCw1NC41IDE4OCw2NC41IEwxODgsODguNDg0NCBDMTg4LDk4LjQ4NDQgMTU3LDk4LjQ4NDQgMTU3LDk4LjQ4NDQgQzE1Nyw5OC40ODQ0IDEyNiw5OC40ODQ0IDEyNiw4OC40ODQ0IEwxMjYsNjQuNSIgZmlsbD0iI0ZGRkZFMCIgc3R5bGU9InN0cm9rZTojOEI4MDAwO3N0cm9rZS13aWR0aDowLjU7Ii8+PHBhdGggZD0iTTEyNiw2NC41IEMxMjYsNzQuNSAxNTcsNzQuNSAxNTcsNzQuNSBDMTU3LDc0LjUgMTg4LDc0LjUgMTg4LDY0LjUiIGZpbGw9Im5vbmUiIHN0eWxlPSJzdHJva2U6IzhCODAwMDtzdHJva2Utd2lkdGg6MC41OyIvPjx0ZXh0IGZpbGw9IiMwMDAwMDAiIGZvbnQtZmFtaWx5PSJzYW5zLXNlcmlmIiBmb250LXNpemU9IjE0IiBsZW5ndGhBZGp1c3Q9InNwYWNpbmciIHRleHRMZW5ndGg9IjQyIiB4PSIxMzYiIHk9IjkxLjczNDQiPk1vZGVsczwvdGV4dD48L2c+PGcgY2xhc3M9ImVudGl0eSIgZGF0YS1lbnRpdHk9IkdNTjQxIiBkYXRhLXNvdXJjZS1saW5lPSI5MCIgZGF0YS11aWQ9ImVudDAwNDIiIGlkPSJlbnRpdHlfR01ONDEiPjxwYXRoIGQ9Ik03MDcuNSw1MTYgTDcwNy41LDUzOCBMNjY2LjI2LDU0MiBMNzA3LjUsNTQ2IEw3MDcuNSw1NjcuNzQyMiBBMCwwIDAgMCAwIDcwNy41LDU2Ny43NDIyIEw5NjIuNSw1NjcuNzQyMiBBMCwwIDAgMCAwIDk2Mi41LDU2Ny43NDIyIEw5NjIuNSw1MjYgTDk1Mi41LDUxNiBMNzA3LjUsNTE2IEEwLDAgMCAwIDAgNzA3LjUsNTE2IiBmaWxsPSIjRkVGRkREIiBzdHlsZT0ic3Ryb2tlOiMxODE4MTg7c3Ryb2tlLXdpZHRoOjAuNTsiLz48cGF0aCBkPSJNOTUyLjUsNTE2IEw5NTIuNSw1MjYgTDk2Mi41LDUyNiBMOTUyLjUsNTE2IiBmaWxsPSIjRkVGRkREIiBzdHlsZT0ic3Ryb2tlOiMxODE4MTg7c3Ryb2tlLXdpZHRoOjAuNTsiLz48dGV4dCBmaWxsPSIjMDAwMDAwIiBmb250LWZhbWlseT0ic2Fucy1zZXJpZiIgZm9udC1zaXplPSIxMyIgbGVuZ3RoQWRqdXN0PSJzcGFjaW5nIiB0ZXh0TGVuZ3RoPSIyMjcuNSIgeD0iNzEzLjUiIHk9IjUzMy4yODkxIj5Db21iaW5lcyB2ZXNzZWwgbW9ycGhvbG9neSBmZWF0dXJlczwvdGV4dD48dGV4dCBmaWxsPSIjMDAwMDAwIiBmb250LWZhbWlseT0ic2Fucy1zZXJpZiIgZm9udC1zaXplPSIxMyIgbGVuZ3RoQWRqdXN0PSJzcGFjaW5nIiB0ZXh0TGVuZ3RoPSIyMzQiIHg9IjcxMy41IiB5PSI1NDcuMjAzMSI+KGRlbnNpdHksIHRvcnR1b3NpdHksIGNhbGliZXIsIGV0Yy4pPC90ZXh0Pjx0ZXh0IGZpbGw9IiMwMDAwMDAiIGZvbnQtZmFtaWx5PSJzYW5zLXNlcmlmIiBmb250LXNpemU9IjEzIiBsZW5ndGhBZGp1c3Q9InNwYWNpbmciIHRleHRMZW5ndGg9IjE2OSIgeD0iNzEzLjUiIHk9IjU2MS4xMTcyIj53aXRoIGRlZXAgbGVhcm5lZCBmZWF0dXJlczwvdGV4dD48L2c+PGcgY2xhc3M9ImVudGl0eSIgZGF0YS1lbnRpdHk9IkdNTjQ0IiBkYXRhLXNvdXJjZS1saW5lPSI5NiIgZGF0YS11aWQ9ImVudDAwNDUiIGlkPSJlbnRpdHlfR01ONDQiPjxwYXRoIGQ9Ik02NjYsOTM0IEw2NjYsOTYzIEw1OTguMTIsOTY3IEw2NjYsOTcxIEw2NjYsOTk5LjY1NjMgQTAsMCAwIDAgMCA2NjYsOTk5LjY1NjMgTDg1Niw5OTkuNjU2MyBBMCwwIDAgMCAwIDg1Niw5OTkuNjU2MyBMODU2LDk0NCBMODQ2LDkzNCBMNjY2LDkzNCBBMCwwIDAgMCAwIDY2Niw5MzQiIGZpbGw9IiNGRUZGREQiIHN0eWxlPSJzdHJva2U6IzE4MTgxODtzdHJva2Utd2lkdGg6MC41OyIvPjxwYXRoIGQ9Ik04NDYsOTM0IEw4NDYsOTQ0IEw4NTYsOTQ0IEw4NDYsOTM0IiBmaWxsPSIjRkVGRkREIiBzdHlsZT0ic3Ryb2tlOiMxODE4MTg7c3Ryb2tlLXdpZHRoOjAuNTsiLz48dGV4dCBmaWxsPSIjMDAwMDAwIiBmb250LWZhbWlseT0ic2Fucy1zZXJpZiIgZm9udC1zaXplPSIxMyIgbGVuZ3RoQWRqdXN0PSJzcGFjaW5nIiB0ZXh0TGVuZ3RoPSIxNTYiIHg9IjY3MiIgeT0iOTUxLjI4OTEiPldlaWdodGVkIGNvbWJpbmF0aW9uIG9mOjwvdGV4dD48dGV4dCBmaWxsPSIjMDAwMDAwIiBmb250LWZhbWlseT0ic2Fucy1zZXJpZiIgZm9udC1zaXplPSIxMyIgbGVuZ3RoQWRqdXN0PSJzcGFjaW5nIiB0ZXh0TGVuZ3RoPSIxMzAiIHg9IjY3MiIgeT0iOTY1LjIwMzEiPi0gUmV0aW5hbCBSaXNrICg0MCUpPC90ZXh0Pjx0ZXh0IGZpbGw9IiMwMDAwMDAiIGZvbnQtZmFtaWx5PSJzYW5zLXNlcmlmIiBmb250LXNpemU9IjEzIiBsZW5ndGhBZGp1c3Q9InNwYWNpbmciIHRleHRMZW5ndGg9IjEzNi41IiB4PSI2NzIiIHk9Ijk3OS4xMTcyIj4tIENsaW5pY2FsIFJpc2sgKDYwJSk8L3RleHQ+PHRleHQgZmlsbD0iIzAwMDAwMCIgZm9udC1mYW1pbHk9InNhbnMtc2VyaWYiIGZvbnQtc2l6ZT0iMTMiIGxlbmd0aEFkanVzdD0ic3BhY2luZyIgdGV4dExlbmd0aD0iMTY5IiB4PSI2NzIiIHk9Ijk5My4wMzEzIj5CYXNlZCBvbiBtb2RlbCBwZXJmb3JtYW5jZTwvdGV4dD48L2c+PGcgY2xhc3M9ImVudGl0eSIgZGF0YS1lbnRpdHk9IkdNTjQ3IiBkYXRhLXNvdXJjZS1saW5lPSIxMDMiIGRhdGEtdWlkPSJlbnQwMDQ4IiBpZD0iZW50aXR5X0dNTjQ3Ij48cGF0aCBkPSJNODEuNSwxMjMzIEw4MS41LDEyODQuNzQyMiBBMCwwIDAgMCAwIDgxLjUsMTI4NC43NDIyIEwzMTAuNSwxMjg0Ljc0MjIgQTAsMCAwIDAgMCAzMTAuNSwxMjg0Ljc0MjIgTDMxMC41LDEyNDMgTDMwMC41LDEyMzMgTDIzNC45NCwxMjMzIEwzODguMDYsMTEyMC4wMSBMMjI2Ljk0LDEyMzMgTDgxLjUsMTIzMyBBMCwwIDAgMCAwIDgxLjUsMTIzMyIgZmlsbD0iI0ZFRkZERCIgc3R5bGU9InN0cm9rZTojMTgxODE4O3N0cm9rZS13aWR0aDowLjU7Ii8+PHBhdGggZD0iTTMwMC41LDEyMzMgTDMwMC41LDEyNDMgTDMxMC41LDEyNDMgTDMwMC41LDEyMzMiIGZpbGw9IiNGRUZGREQiIHN0eWxlPSJzdHJva2U6IzE4MTgxODtzdHJva2Utd2lkdGg6MC41OyIvPjx0ZXh0IGZpbGw9IiMwMDAwMDAiIGZvbnQtZmFtaWx5PSJzYW5zLXNlcmlmIiBmb250LXNpemU9IjEzIiBsZW5ndGhBZGp1c3Q9InNwYWNpbmciIHRleHRMZW5ndGg9IjE5NSIgeD0iODcuNSIgeT0iMTI1MC4yODkxIj5HZW1pbmkgMi4wIEZsYXNoIGFuYWx5emVzIHJpc2s8L3RleHQ+PHRleHQgZmlsbD0iIzAwMDAwMCIgZm9udC1mYW1pbHk9InNhbnMtc2VyaWYiIGZvbnQtc2l6ZT0iMTMiIGxlbmd0aEFkanVzdD0ic3BhY2luZyIgdGV4dExlbmd0aD0iMjA4IiB4PSI4Ny41IiB5PSIxMjY0LjIwMzEiPmZhY3RvcnMgYW5kIGNyZWF0ZXMgcGVyc29uYWxpemVkPC90ZXh0Pjx0ZXh0IGZpbGw9IiMwMDAwMDAiIGZvbnQtZmFtaWx5PSJzYW5zLXNlcmlmIiBmb250LXNpemU9IjEzIiBsZW5ndGhBZGp1c3Q9InNwYWNpbmciIHRleHRMZW5ndGg9IjE0MyIgeD0iODcuNSIgeT0iMTI3OC4xMTcyIj5oZWFsdGggcmVjb21tZW5kYXRpb25zPC90ZXh0PjwvZz48IS0tbGluayBJbWdVcGxvYWQgdG8gVmVzc2VsTW9kZWwtLT48ZyBjbGFzcz0ibGluayIgZGF0YS1lbnRpdHktMT0iSW1nVXBsb2FkIiBkYXRhLWVudGl0eS0yPSJWZXNzZWxNb2RlbCIgZGF0YS1zb3VyY2UtbGluZT0iNjQiIGRhdGEtdWlkPSJsbmsyMiIgaWQ9ImxpbmtfSW1nVXBsb2FkX1Zlc3NlbE1vZGVsIj48cGF0aCBkPSJNNDgzLjYxLDk5LjEgQzQ2My4zOSwxMDcuMzIgNDQxLjg2LDExNy45MyA0MjQsMTMxIEMzOTQuMzksMTUyLjY4IDM3MS41NDA5LDE4MC44MDg4IDM1NC43MjA5LDIwNC42Mjg4IiBmaWxsPSJub25lIiBpZD0iSW1nVXBsb2FkLXRvLVZlc3NlbE1vZGVsIiBzdHlsZT0ic3Ryb2tlOiMwMDAwMDA7c3Ryb2tlLXdpZHRoOjE7Ii8+PHBvbHlnb24gZmlsbD0iIzAwMDAwMCIgcG9pbnRzPSIzNTEuMjYsMjA5LjUzLDM1OS43MTg5LDIwNC40ODU0LDM1NC4xNDQxLDIwNS40NDU2LDM1My4xODM5LDE5OS44NzA5LDM1MS4yNiwyMDkuNTMiIHN0eWxlPSJzdHJva2U6IzAwMDAwMDtzdHJva2Utd2lkdGg6MTsiLz48dGV4dCBmaWxsPSIjMDAwMDAwIiBmb250LWZhbWlseT0ic2Fucy1zZXJpZiIgZm9udC1zaXplPSIxMyIgbGVuZ3RoQWRqdXN0PSJzcGFjaW5nIiB0ZXh0TGVuZ3RoPSIxMTciIHg9IjQyNSIgeT0iMTQ0LjI4OTEiPlByZXByb2Nlc3NlZCBJbWFnZTwvdGV4dD48L2c+PCEtLWxpbmsgQ2xpbmljYWxGb3JtIHRvIENsaW5pY2FsTW9kZWwtLT48ZyBjbGFzcz0ibGluayIgZGF0YS1lbnRpdHktMT0iQ2xpbmljYWxGb3JtIiBkYXRhLWVudGl0eS0yPSJDbGluaWNhbE1vZGVsIiBkYXRhLXNvdXJjZS1saW5lPSI2NSIgZGF0YS11aWQ9ImxuazIzIiBpZD0ibGlua19DbGluaWNhbEZvcm1fQ2xpbmljYWxNb2RlbCI+PHBhdGggZD0iTTg0Mi4wOSw5My40OSBDOTE3LjE3LDExMy4zNCAxMDE2LDE1NS4zNCAxMDE2LDIzOSBDMTAxNiwyMzkgMTAxNiwyMzkgMTAxNiw2NjYuNSBDMTAxNiw3NDAuNTMgNzYzLjQ5LDcyNi4xMiA2OTAsNzM1IEM2NjMuNjIsNzM4LjE5IDQ3NS45LDczMy43MSA0NTEsNzQzIEM0MjAuMDIsNzU0LjU2IDM5NS41MjY3LDc3NC45MDE1IDM3NS45ODY3LDc5NC42ODE1IiBmaWxsPSJub25lIiBpZD0iQ2xpbmljYWxGb3JtLXRvLUNsaW5pY2FsTW9kZWwiIHN0eWxlPSJzdHJva2U6IzAwMDAwMDtzdHJva2Utd2lkdGg6MTsiLz48cG9seWdvbiBmaWxsPSIjMDAwMDAwIiBwb2ludHM9IjM3MS43Nyw3OTguOTUsMzgwLjk0MDYsNzk1LjM1ODQsMzc1LjI4MzksNzk1LjM5MywzNzUuMjQ5NCw3ODkuNzM2MiwzNzEuNzcsNzk4Ljk1IiBzdHlsZT0ic3Ryb2tlOiMwMDAwMDA7c3Ryb2tlLXdpZHRoOjE7Ii8+PHRleHQgZmlsbD0iIzAwMDAwMCIgZm9udC1mYW1pbHk9InNhbnMtc2VyaWYiIGZvbnQtc2l6ZT0iMTMiIGxlbmd0aEFkanVzdD0ic3BhY2luZyIgdGV4dExlbmd0aD0iMTIzLjUiIHg9IjEwMTciIHk9IjQ4NC4yODkxIj5DbGluaWNhbCBQYXJhbWV0ZXJzPC90ZXh0PjwvZz48IS0tbGluayBWZXNzZWxNb2RlbCB0byBWZXNzZWxGZWF0dXJlcy0tPjxnIGNsYXNzPSJsaW5rIiBkYXRhLWVudGl0eS0xPSJWZXNzZWxNb2RlbCIgZGF0YS1lbnRpdHktMj0iVmVzc2VsRmVhdHVyZXMiIGRhdGEtc291cmNlLWxpbmU9IjY3IiBkYXRhLXVpZD0ibG5rMjQiIGlkPSJsaW5rX1Zlc3NlbE1vZGVsX1Zlc3NlbEZlYXR1cmVzIj48cGF0aCBkPSJNMzg3Ljc5LDI3MC4wMiBDNDAzLjYsMjc4IDQyMC44OSwyODYuNTIgNDM3LDI5NCBDNDY4Ljk3LDMwOC44NCA0ODAuMTksMzA2LjE4IDUxMCwzMjUgQzUzNS4wNCwzNDAuODEgNTU1LjY4NCwzNTguOTMxMiA1NzMuODY0LDM3Ni43NDEyIiBmaWxsPSJub25lIiBpZD0iVmVzc2VsTW9kZWwtdG8tVmVzc2VsRmVhdHVyZXMiIHN0eWxlPSJzdHJva2U6IzAwMDAwMDtzdHJva2Utd2lkdGg6MTsiLz48cG9seWdvbiBmaWxsPSIjMDAwMDAwIiBwb2ludHM9IjU3OC4xNSwzODAuOTQsNTc0LjUyMDIsMzcxLjc4NDQsNTc0LjU3ODMsMzc3LjQ0MSw1NjguOTIxOCwzNzcuNDk5Miw1NzguMTUsMzgwLjk0IiBzdHlsZT0ic3Ryb2tlOiMwMDAwMDA7c3Ryb2tlLXdpZHRoOjE7Ii8+PHRleHQgZmlsbD0iIzAwMDAwMCIgZm9udC1mYW1pbHk9InNhbnMtc2VyaWYiIGZvbnQtc2l6ZT0iMTMiIGxlbmd0aEFkanVzdD0ic3BhY2luZyIgdGV4dExlbmd0aD0iMTU2IiB4PSI0OTYiIHk9IjMxNS4yODkxIj5WZXNzZWwgU2VnbWVudGF0aW9uIE1hc2s8L3RleHQ+PC9nPjwhLS1saW5rIEltZ1VwbG9hZCB0byBEZWVwTW9kZWwtLT48ZyBjbGFzcz0ibGluayIgZGF0YS1lbnRpdHktMT0iSW1nVXBsb2FkIiBkYXRhLWVudGl0eS0yPSJEZWVwTW9kZWwiIGRhdGEtc291cmNlLWxpbmU9IjY4IiBkYXRhLXVpZD0ibG5rMjUiIGlkPSJsaW5rX0ltZ1VwbG9hZF9EZWVwTW9kZWwiPjxwYXRoIGQ9Ik01NTEsOTkuMjggQzU1MSwxMjcuODcgNTUxLDE3Mi4xMyA1NTEsMjAzLjkzIiBmaWxsPSJub25lIiBpZD0iSW1nVXBsb2FkLXRvLURlZXBNb2RlbCIgc3R5bGU9InN0cm9rZTojMDAwMDAwO3N0cm9rZS13aWR0aDoxOyIvPjxwb2x5Z29uIGZpbGw9IiMwMDAwMDAiIHBvaW50cz0iNTUxLDIwOS45Myw1NTUsMjAwLjkzLDU1MSwyMDQuOTMsNTQ3LDIwMC45Myw1NTEsMjA5LjkzIiBzdHlsZT0ic3Ryb2tlOiMwMDAwMDA7c3Ryb2tlLXdpZHRoOjE7Ii8+PHRleHQgZmlsbD0iIzAwMDAwMCIgZm9udC1mYW1pbHk9InNhbnMtc2VyaWYiIGZvbnQtc2l6ZT0iMTMiIGxlbmd0aEFkanVzdD0ic3BhY2luZyIgdGV4dExlbmd0aD0iMTE3IiB4PSI1NTIiIHk9IjE0NC4yODkxIj5QcmVwcm9jZXNzZWQgSW1hZ2U8L3RleHQ+PC9nPjwhLS1saW5rIERlZXBNb2RlbCB0byBGZWF0dXJlRnVzaW9uLS0+PGcgY2xhc3M9ImxpbmsiIGRhdGEtZW50aXR5LTE9IkRlZXBNb2RlbCIgZGF0YS1lbnRpdHktMj0iRmVhdHVyZUZ1c2lvbiIgZGF0YS1zb3VyY2UtbGluZT0iNjkiIGRhdGEtdWlkPSJsbmsyNiIgaWQ9ImxpbmtfRGVlcE1vZGVsX0ZlYXR1cmVGdXNpb24iPjxwYXRoIGQ9Ik01MDQuOTUsMjcwLjEyIEM0NzcuOTEsMjg2LjA2IDQ0Mi41NiwzMDQuOTYgNDA5LDMxNyBDMzkxLjkzLDMyMy4xMiAzODAuNDksMzEwLjk4IDM2OSwzMjUgQzMzNi4zMSwzNjQuODcgMzQwLjgsMzk3Ljg0IDM2OSw0NDEgQzQwMy45Myw0OTQuNDYgNDY4LjYyNzYsNTE4LjI0MjYgNTIyLjA0NzYsNTI5Ljg4MjYiIGZpbGw9Im5vbmUiIGlkPSJEZWVwTW9kZWwtdG8tRmVhdHVyZUZ1c2lvbiIgc3R5bGU9InN0cm9rZTojMDAwMDAwO3N0cm9rZS13aWR0aDoxOyIvPjxwb2x5Z29uIGZpbGw9IiMwMDAwMDAiIHBvaW50cz0iNTI3LjkxLDUzMS4xNiw1MTkuOTY3OSw1MjUuMzM1Niw1MjMuMDI0Niw1MzAuMDk1NSw1MTguMjY0Nyw1MzMuMTUyMiw1MjcuOTEsNTMxLjE2IiBzdHlsZT0ic3Ryb2tlOiMwMDAwMDA7c3Ryb2tlLXdpZHRoOjE7Ii8+PHRleHQgZmlsbD0iIzAwMDAwMCIgZm9udC1mYW1pbHk9InNhbnMtc2VyaWYiIGZvbnQtc2l6ZT0iMTMiIGxlbmd0aEFkanVzdD0ic3BhY2luZyIgdGV4dExlbmd0aD0iMTQ5LjUiIHg9IjM3MCIgeT0iNDE2Ljc4OTEiPkRlZXAgRmVhdHVyZXMgKDUxMi1kaW0pPC90ZXh0PjwvZz48IS0tbGluayBWZXNzZWxGZWF0dXJlcyB0byBGZWF0dXJlRnVzaW9uLS0+PGcgY2xhc3M9ImxpbmsiIGRhdGEtZW50aXR5LTE9IlZlc3NlbEZlYXR1cmVzIiBkYXRhLWVudGl0eS0yPSJGZWF0dXJlRnVzaW9uIiBkYXRhLXNvdXJjZS1saW5lPSI3MCIgZGF0YS11aWQ9ImxuazI3IiBpZD0ibGlua19WZXNzZWxGZWF0dXJlc19GZWF0dXJlRnVzaW9uIj48cGF0aCBkPSJNNjAzLjk2LDQ0MS4yNyBDNjAyLjMsNDY1LjA2IDYwMC40MTkzLDQ5Mi4wODQ3IDU5OC45MTkzLDUxMy40OTQ3IiBmaWxsPSJub25lIiBpZD0iVmVzc2VsRmVhdHVyZXMtdG8tRmVhdHVyZUZ1c2lvbiIgc3R5bGU9InN0cm9rZTojMDAwMDAwO3N0cm9rZS13aWR0aDoxOyIvPjxwb2x5Z29uIGZpbGw9IiMwMDAwMDAiIHBvaW50cz0iNTk4LjUsNTE5LjQ4LDYwMy4xMTkyLDUxMC43ODE2LDU5OC44NDk0LDUxNC40OTIyLDU5NS4xMzg4LDUxMC4yMjI0LDU5OC41LDUxOS40OCIgc3R5bGU9InN0cm9rZTojMDAwMDAwO3N0cm9rZS13aWR0aDoxOyIvPjx0ZXh0IGZpbGw9IiMwMDAwMDAiIGZvbnQtZmFtaWx5PSJzYW5zLXNlcmlmIiBmb250LXNpemU9IjEzIiBsZW5ndGhBZGp1c3Q9InNwYWNpbmciIHRleHRMZW5ndGg9Ijk3LjUiIHg9IjYwMiIgeT0iNDg0LjI4OTEiPlZlc3NlbCBGZWF0dXJlczwvdGV4dD48L2c+PCEtLWxpbmsgRmVhdHVyZUZ1c2lvbiB0byBGZWF0dXJlU2NhbGluZy0tPjxnIGNsYXNzPSJsaW5rIiBkYXRhLWVudGl0eS0xPSJGZWF0dXJlRnVzaW9uIiBkYXRhLWVudGl0eS0yPSJGZWF0dXJlU2NhbGluZyIgZGF0YS1zb3VyY2UtbGluZT0iNzEiIGRhdGEtdWlkPSJsbmsyOCIgaWQ9ImxpbmtfRmVhdHVyZUZ1c2lvbl9GZWF0dXJlU2NhbGluZyI+PHBhdGggZD0iTTU5Ny43Miw1NjQuNzIgQzU5OC40NCw1ODYuODQgNTk5LjM3NDIsNjE0LjkyMzIgNjAwLjA5NDIsNjM2Ljk3MzIiIGZpbGw9Im5vbmUiIGlkPSJGZWF0dXJlRnVzaW9uLXRvLUZlYXR1cmVTY2FsaW5nIiBzdHlsZT0ic3Ryb2tlOiMwMDAwMDA7c3Ryb2tlLXdpZHRoOjE7Ii8+PHBvbHlnb24gZmlsbD0iIzAwMDAwMCIgcG9pbnRzPSI2MDAuMjksNjQyLjk3LDYwMy45OTQxLDYzMy44NDQzLDYwMC4xMjY4LDYzNy45NzI3LDU5NS45OTg0LDYzNC4xMDUzLDYwMC4yOSw2NDIuOTciIHN0eWxlPSJzdHJva2U6IzAwMDAwMDtzdHJva2Utd2lkdGg6MTsiLz48dGV4dCBmaWxsPSIjMDAwMDAwIiBmb250LWZhbWlseT0ic2Fucy1zZXJpZiIgZm9udC1zaXplPSIxMyIgbGVuZ3RoQWRqdXN0PSJzcGFjaW5nIiB0ZXh0TGVuZ3RoPSIxMTAuNSIgeD0iNjAwIiB5PSI2MTEuMjg5MSI+Q29tYmluZWQgRmVhdHVyZXM8L3RleHQ+PC9nPjwhLS1saW5rIEZlYXR1cmVTY2FsaW5nIHRvIFJldGluYWxNb2RlbC0tPjxnIGNsYXNzPSJsaW5rIiBkYXRhLWVudGl0eS0xPSJGZWF0dXJlU2NhbGluZyIgZGF0YS1lbnRpdHktMj0iUmV0aW5hbE1vZGVsIiBkYXRhLXNvdXJjZS1saW5lPSI3MiIgZGF0YS11aWQ9ImxuazI5IiBpZD0ibGlua19GZWF0dXJlU2NhbGluZ19SZXRpbmFsTW9kZWwiPjxwYXRoIGQ9Ik01OTQuMjYsNjg4LjI4IEM1ODUuNDEsNzE2Ljg3IDU3MS42MjUzLDc2MS4zOTg2IDU2MS43NzUzLDc5My4xOTg2IiBmaWxsPSJub25lIiBpZD0iRmVhdHVyZVNjYWxpbmctdG8tUmV0aW5hbE1vZGVsIiBzdHlsZT0ic3Ryb2tlOiMwMDAwMDA7c3Ryb2tlLXdpZHRoOjE7Ii8+PHBvbHlnb24gZmlsbD0iIzAwMDAwMCIgcG9pbnRzPSI1NjAsNzk4LjkzLDU2Ni40ODM4LDc5MS41MTY1LDU2MS40Nzk0LDc5NC4xNTM5LDU1OC44NDIsNzg5LjE0OTUsNTYwLDc5OC45MyIgc3R5bGU9InN0cm9rZTojMDAwMDAwO3N0cm9rZS13aWR0aDoxOyIvPjx0ZXh0IGZpbGw9IiMwMDAwMDAiIGZvbnQtZmFtaWx5PSJzYW5zLXNlcmlmIiBmb250LXNpemU9IjEzIiBsZW5ndGhBZGp1c3Q9InNwYWNpbmciIHRleHRMZW5ndGg9Ijk3LjUiIHg9IjU4NCIgeT0iNzMzLjI4OTEiPlNjYWxlZCBGZWF0dXJlczwvdGV4dD48L2c+PCEtLWxpbmsgUmV0aW5hbE1vZGVsIHRvIFJpc2tGdXNpb24tLT48ZyBjbGFzcz0ibGluayIgZGF0YS1lbnRpdHktMT0iUmV0aW5hbE1vZGVsIiBkYXRhLWVudGl0eS0yPSJSaXNrRnVzaW9uIiBkYXRhLXNvdXJjZS1saW5lPSI3NCIgZGF0YS11aWQ9ImxuazMwIiBpZD0ibGlua19SZXRpbmFsTW9kZWxfUmlza0Z1c2lvbiI+PHBhdGggZD0iTTU0My4yOCw4NTkuMTggQzUzNi41LDg4NC43OCA1MjguMzMzOSw5MTUuNjE5NCA1MjIuMjQzOSw5MzguNjQ5NCIgZmlsbD0ibm9uZSIgaWQ9IlJldGluYWxNb2RlbC10by1SaXNrRnVzaW9uIiBzdHlsZT0ic3Ryb2tlOiMwMDAwMDA7c3Ryb2tlLXdpZHRoOjE7Ii8+PHBvbHlnb24gZmlsbD0iIzAwMDAwMCIgcG9pbnRzPSI1MjAuNzEsOTQ0LjQ1LDUyNi44Nzc5LDkzNi43NzE3LDUyMS45ODgzLDkzOS42MTYyLDUxOS4xNDM4LDkzNC43MjY1LDUyMC43MSw5NDQuNDUiIHN0eWxlPSJzdHJva2U6IzAwMDAwMDtzdHJva2Utd2lkdGg6MTsiLz48dGV4dCBmaWxsPSIjMDAwMDAwIiBmb250LWZhbWlseT0ic2Fucy1zZXJpZiIgZm9udC1zaXplPSIxMyIgbGVuZ3RoQWRqdXN0PSJzcGFjaW5nIiB0ZXh0TGVuZ3RoPSIxMTciIHg9IjUzNiIgeT0iOTAyLjI4OTEiPlJldGluYWwgUmlzayBTY29yZTwvdGV4dD48L2c+PCEtLWxpbmsgQ2xpbmljYWxNb2RlbCB0byBSaXNrRnVzaW9uLS0+PGcgY2xhc3M9ImxpbmsiIGRhdGEtZW50aXR5LTE9IkNsaW5pY2FsTW9kZWwiIGRhdGEtZW50aXR5LTI9IlJpc2tGdXNpb24iIGRhdGEtc291cmNlLWxpbmU9Ijc1IiBkYXRhLXVpZD0ibG5rMzEiIGlkPSJsaW5rX0NsaW5pY2FsTW9kZWxfUmlza0Z1c2lvbiI+PHBhdGggZD0iTTM2Mi4wMiw4NTkuMTggQzM3MS4xNSw4NzMuOTMgMzgzLjYzLDg5MS4zMyAzOTgsOTA0IEM0MTYuNzEsOTIwLjUgNDM1LjE2MzksOTMxLjU0NzMgNDU2LjQ1MzksOTQxLjc5NzMiIGZpbGw9Im5vbmUiIGlkPSJDbGluaWNhbE1vZGVsLXRvLVJpc2tGdXNpb24iIHN0eWxlPSJzdHJva2U6IzAwMDAwMDtzdHJva2Utd2lkdGg6MTsiLz48cG9seWdvbiBmaWxsPSIjMDAwMDAwIiBwb2ludHM9IjQ2MS44Niw5NDQuNCw0NTUuNDg2LDkzNi44OTE4LDQ1Ny4zNTQ5LDk0Mi4yMzEsNDUyLjAxNTcsOTQ0LjA5OTksNDYxLjg2LDk0NC40IiBzdHlsZT0ic3Ryb2tlOiMwMDAwMDA7c3Ryb2tlLXdpZHRoOjE7Ii8+PHRleHQgZmlsbD0iIzAwMDAwMCIgZm9udC1mYW1pbHk9InNhbnMtc2VyaWYiIGZvbnQtc2l6ZT0iMTMiIGxlbmd0aEFkanVzdD0ic3BhY2luZyIgdGV4dExlbmd0aD0iMTIzLjUiIHg9IjM5OSIgeT0iOTAyLjI4OTEiPkNsaW5pY2FsIFJpc2sgU2NvcmU8L3RleHQ+PC9nPjwhLS1saW5rIFJpc2tGdXNpb24gdG8gVmlzdWFsaXphdGlvbi0tPjxnIGNsYXNzPSJsaW5rIiBkYXRhLWVudGl0eS0xPSJSaXNrRnVzaW9uIiBkYXRhLWVudGl0eS0yPSJWaXN1YWxpemF0aW9uIiBkYXRhLXNvdXJjZS1saW5lPSI3NiIgZGF0YS11aWQ9ImxuazMyIiBpZD0ibGlua19SaXNrRnVzaW9uX1Zpc3VhbGl6YXRpb24iPjxwYXRoIGQ9Ik01MzQuNjIsOTg5LjcyIEM1NDMuNzMsMTAwMC45OCA1NTMuODksMTAxNS40IDU2MCwxMDMwIEM1ODguMjEsMTA5Ny4zNyA1OTUuMjU4NCwxMTc4LjE5NTMgNTk3LjEyODQsMTIyMi43NTUzIiBmaWxsPSJub25lIiBpZD0iUmlza0Z1c2lvbi10by1WaXN1YWxpemF0aW9uIiBzdHlsZT0ic3Ryb2tlOiMwMDAwMDA7c3Ryb2tlLXdpZHRoOjE7Ii8+PHBvbHlnb24gZmlsbD0iIzAwMDAwMCIgcG9pbnRzPSI1OTcuMzgsMTIyOC43NSw2MDAuOTk5MSwxMjE5LjU5MDIsNTk3LjE3MDQsMTIyMy43NTQ0LDU5My4wMDYyLDEyMTkuOTI1Niw1OTcuMzgsMTIyOC43NSIgc3R5bGU9InN0cm9rZTojMDAwMDAwO3N0cm9rZS13aWR0aDoxOyIvPjx0ZXh0IGZpbGw9IiMwMDAwMDAiIGZvbnQtZmFtaWx5PSJzYW5zLXNlcmlmIiBmb250LXNpemU9IjEzIiBsZW5ndGhBZGp1c3Q9InNwYWNpbmciIHRleHRMZW5ndGg9IjEyMy41IiB4PSI1ODYiIHk9IjExMDMuMjg5MSI+Q29tYmluZWQgUmlzayBTY29yZTwvdGV4dD48L2c+PCEtLWxpbmsgUmlza0Z1c2lvbiB0byBMTE0tLT48ZyBjbGFzcz0ibGluayIgZGF0YS1lbnRpdHktMT0iUmlza0Z1c2lvbiIgZGF0YS1lbnRpdHktMj0iTExNIiBkYXRhLXNvdXJjZS1saW5lPSI3NyIgZGF0YS11aWQ9ImxuazMzIiBpZD0ibGlua19SaXNrRnVzaW9uX0xMTSI+PHBhdGggZD0iTTQ5Mi41Miw5ODkuNjIgQzQ4MS4yMSwxMDAxLjA4IDQ2Ny42NywxMDE1LjcxIDQ1NywxMDMwIEM0NDYuNDMsMTA0NC4xNiA0MzkuMjQ3MSwxMDU2LjEyMzkgNDMyLjAwNzEsMTA2OS40OTM5IiBmaWxsPSJub25lIiBpZD0iUmlza0Z1c2lvbi10by1MTE0iIHN0eWxlPSJzdHJva2U6IzAwMDAwMDtzdHJva2Utd2lkdGg6MTsiLz48cG9seWdvbiBmaWxsPSIjMDAwMDAwIiBwb2ludHM9IjQyOS4xNSwxMDc0Ljc3LDQzNi45NTMsMTA2OC43NjA2LDQzMS41MzA5LDEwNzAuMzczMyw0MjkuOTE4MiwxMDY0Ljk1MTEsNDI5LjE1LDEwNzQuNzciIHN0eWxlPSJzdHJva2U6IzAwMDAwMDtzdHJva2Utd2lkdGg6MTsiLz48dGV4dCBmaWxsPSIjMDAwMDAwIiBmb250LWZhbWlseT0ic2Fucy1zZXJpZiIgZm9udC1zaXplPSIxMyIgbGVuZ3RoQWRqdXN0PSJzcGFjaW5nIiB0ZXh0TGVuZ3RoPSI5Ny41IiB4PSI0NTgiIHk9IjEwNDMuMjg5MSI+UmlzayBBc3Nlc3NtZW50PC90ZXh0PjwvZz48IS0tbGluayBMTE0gdG8gUmVjb21tZW5kYXRpb25zLS0+PGcgY2xhc3M9ImxpbmsiIGRhdGEtZW50aXR5LTE9IkxMTSIgZGF0YS1lbnRpdHktMj0iUmVjb21tZW5kYXRpb25zIiBkYXRhLXNvdXJjZS1saW5lPSI3OCIgZGF0YS11aWQ9ImxuazM0IiBpZD0ibGlua19MTE1fUmVjb21tZW5kYXRpb25zIj48cGF0aCBkPSJNNDE4LDExMjAuMDEgQzQxOCwxMTQ4LjA3IDQxOCwxMTkxLjI4IDQxOCwxMjIyLjcyIiBmaWxsPSJub25lIiBpZD0iTExNLXRvLVJlY29tbWVuZGF0aW9ucyIgc3R5bGU9InN0cm9rZTojMDAwMDAwO3N0cm9rZS13aWR0aDoxOyIvPjxwb2x5Z29uIGZpbGw9IiMwMDAwMDAiIHBvaW50cz0iNDE4LDEyMjguNzIsNDIyLDEyMTkuNzIsNDE4LDEyMjMuNzIsNDE0LDEyMTkuNzIsNDE4LDEyMjguNzIiIHN0eWxlPSJzdHJva2U6IzAwMDAwMDtzdHJva2Utd2lkdGg6MTsiLz48dGV4dCBmaWxsPSIjMDAwMDAwIiBmb250LWZhbWlseT0ic2Fucy1zZXJpZiIgZm9udC1zaXplPSIxMyIgbGVuZ3RoQWRqdXN0PSJzcGFjaW5nIiB0ZXh0TGVuZ3RoPSIxMjMuNSIgeD0iNDE5IiB5PSIxMTYzLjI4OTEiPlBlcnNvbmFsaXplZCBBZHZpY2U8L3RleHQ+PC9nPjwhLS1saW5rIFZpc3VhbGl6YXRpb24gdG8gR1VJLS0+PGcgY2xhc3M9ImxpbmsiIGRhdGEtZW50aXR5LTE9IlZpc3VhbGl6YXRpb24iIGRhdGEtZW50aXR5LTI9IkdVSSIgZGF0YS1zb3VyY2UtbGluZT0iODAiIGRhdGEtdWlkPSJsbmszNSIgaWQ9ImxpbmtfVmlzdWFsaXphdGlvbl9HVUkiPjxwYXRoIGQ9Ik01ODYuNzIsMTI4OS4xNSBDNTgwLjMyLDEzMDMuOSA1NzEuNDgsMTMyMS42NiA1NjEsMTMzNiBDNTUzLjEzLDEzNDYuNzcgNTQ3LjI4NDYsMTM1My4xNjg0IDUzNy44MDQ2LDEzNjEuODA4NCIgZmlsbD0ibm9uZSIgaWQ9IlZpc3VhbGl6YXRpb24tdG8tR1VJIiBzdHlsZT0ic3Ryb2tlOiMwMDAwMDA7c3Ryb2tlLXdpZHRoOjE7Ii8+PHBvbHlnb24gZmlsbD0iIzAwMDAwMCIgcG9pbnRzPSI1MzMuMzcsMTM2NS44NSw1NDIuNzE2MiwxMzYyLjc0MzksNTM3LjA2NTUsMTM2Mi40ODIsNTM3LjMyNzQsMTM1Ni44MzEyLDUzMy4zNywxMzY1Ljg1IiBzdHlsZT0ic3Ryb2tlOiMwMDAwMDA7c3Ryb2tlLXdpZHRoOjE7Ii8+PHRleHQgZmlsbD0iIzAwMDAwMCIgZm9udC1mYW1pbHk9InNhbnMtc2VyaWYiIGZvbnQtc2l6ZT0iMTMiIGxlbmd0aEFkanVzdD0ic3BhY2luZyIgdGV4dExlbmd0aD0iMTIzLjUiIHg9IjU3MCIgeT0iMTMzNC4yODkxIj5SaXNrIFZpc3VhbGl6YXRpb25zPC90ZXh0PjwvZz48IS0tbGluayBSZWNvbW1lbmRhdGlvbnMgdG8gR1VJLS0+PGcgY2xhc3M9ImxpbmsiIGRhdGEtZW50aXR5LTE9IlJlY29tbWVuZGF0aW9ucyIgZGF0YS1lbnRpdHktMj0iR1VJIiBkYXRhLXNvdXJjZS1saW5lPSI4MSIgZGF0YS11aWQ9ImxuazM2IiBpZD0ibGlua19SZWNvbW1lbmRhdGlvbnNfR1VJIj48cGF0aCBkPSJNNDA4LDEyODkuMjcgQzQwNC43MSwxMzA0LjIxIDQwMy43NCwxMzIyLjEzIDQxMiwxMzM2IEM0MTkuNTgsMTM0OC43MyA0MjYuMzMyNSwxMzU1LjUxMjQgNDM5LjIzMjUsMTM2Mi45NTI0IiBmaWxsPSJub25lIiBpZD0iUmVjb21tZW5kYXRpb25zLXRvLUdVSSIgc3R5bGU9InN0cm9rZTojMDAwMDAwO3N0cm9rZS13aWR0aDoxOyIvPjxwb2x5Z29uIGZpbGw9IiMwMDAwMDAiIHBvaW50cz0iNDQ0LjQzLDEzNjUuOTUsNDM4LjYzMjIsMTM1Ny45ODg1LDQ0MC4wOTg3LDEzNjMuNDUyLDQzNC42MzUzLDEzNjQuOTE4Niw0NDQuNDMsMTM2NS45NSIgc3R5bGU9InN0cm9rZTojMDAwMDAwO3N0cm9rZS13aWR0aDoxOyIvPjx0ZXh0IGZpbGw9IiMwMDAwMDAiIGZvbnQtZmFtaWx5PSJzYW5zLXNlcmlmIiBmb250LXNpemU9IjEzIiBsZW5ndGhBZGp1c3Q9InNwYWNpbmciIHRleHRMZW5ndGg9IjE0MyIgeD0iNDEzIiB5PSIxMzM0LjI4OTEiPkhlYWx0aCBSZWNvbW1lbmRhdGlvbnM8L3RleHQ+PC9nPjwhLS1saW5rIE1vZGVsc0RCIHRvIFZlc3NlbE1vZGVsLS0+PGcgY2xhc3M9ImxpbmsiIGRhdGEtZW50aXR5LTE9Ik1vZGVsc0RCIiBkYXRhLWVudGl0eS0yPSJWZXNzZWxNb2RlbCIgZGF0YS1zb3VyY2UtbGluZT0iODMiIGRhdGEtdWlkPSJsbmszNyIgaWQ9ImxpbmtfTW9kZWxzREJfVmVzc2VsTW9kZWwiPjxwYXRoIGQ9Ik0xODEuNTMsOTguNjQgQzE5Mi43NCwxMDguMzkgMjA2LjEzLDEyMC4xOCAyMTgsMTMxIEMyNDYuODEsMTU3LjI2IDI3NC42ODM4LDE4My43MzI2IDI5Ny40ODM4LDIwNS42NDI2IiBmaWxsPSJub25lIiBpZD0iTW9kZWxzREItdG8tVmVzc2VsTW9kZWwiIHN0eWxlPSJzdHJva2U6IzAwMDAwMDtzdHJva2Utd2lkdGg6MTsiLz48cG9seWdvbiBmaWxsPSIjMDAwMDAwIiBwb2ludHM9IjMwMS44MSwyMDkuOCwyOTguMDkyMiwyMDAuNjc5OCwyOTguMjA0OCwyMDYuMzM1NSwyOTIuNTQ5MSwyMDYuNDQ4MSwzMDEuODEsMjA5LjgiIHN0eWxlPSJzdHJva2U6IzAwMDAwMDtzdHJva2Utd2lkdGg6MTsiLz48dGV4dCBmaWxsPSIjMDAwMDAwIiBmb250LWZhbWlseT0ic2Fucy1zZXJpZiIgZm9udC1zaXplPSIxMyIgbGVuZ3RoQWRqdXN0PSJzcGFjaW5nIiB0ZXh0TGVuZ3RoPSI2NSIgeD0iMjM1IiB5PSIxNDQuMjg5MSI+TG9hZCBNb2RlbDwvdGV4dD48L2c+PCEtLWxpbmsgTW9kZWxzREIgdG8gUmV0aW5hbE1vZGVsLS0+PGcgY2xhc3M9ImxpbmsiIGRhdGEtZW50aXR5LTE9Ik1vZGVsc0RCIiBkYXRhLWVudGl0eS0yPSJSZXRpbmFsTW9kZWwiIGRhdGEtc291cmNlLWxpbmU9Ijg0IiBkYXRhLXVpZD0ibG5rMzgiIGlkPSJsaW5rX01vZGVsc0RCX1JldGluYWxNb2RlbCI+PHBhdGggZD0iTTE0Ny4zNCw5OC42OCBDMTM0LjM5LDEyOS4wNyAxMTMsMTg3LjEzIDExMywyMzkgQzExMywyMzkgMTEzLDIzOSAxMTMsNjY2LjUgQzExMyw4MjAuMDkgMzEyLjQ3LDY3NC42MiA0NTAsNzQzIEM0NzcuOTEsNzU2Ljg4IDUwMC4zOTAzLDc3NS43OTQ4IDUxOS4zNTAzLDc5NC40MjQ4IiBmaWxsPSJub25lIiBpZD0iTW9kZWxzREItdG8tUmV0aW5hbE1vZGVsIiBzdHlsZT0ic3Ryb2tlOiMwMDAwMDA7c3Ryb2tlLXdpZHRoOjE7Ii8+PHBvbHlnb24gZmlsbD0iIzAwMDAwMCIgcG9pbnRzPSI1MjMuNjMsNzk4LjYzLDUyMC4wMTM5LDc4OS40NjksNTIwLjA2MzYsNzk1LjEyNTYsNTE0LjQwNjksNzk1LjE3NTMsNTIzLjYzLDc5OC42MyIgc3R5bGU9InN0cm9rZTojMDAwMDAwO3N0cm9rZS13aWR0aDoxOyIvPjx0ZXh0IGZpbGw9IiMwMDAwMDAiIGZvbnQtZmFtaWx5PSJzYW5zLXNlcmlmIiBmb250LXNpemU9IjEzIiBsZW5ndGhBZGp1c3Q9InNwYWNpbmciIHRleHRMZW5ndGg9IjY1IiB4PSIxMTQiIHk9IjQ4NC4yODkxIj5Mb2FkIE1vZGVsPC90ZXh0PjwvZz48IS0tbGluayBNb2RlbHNEQiB0byBDbGluaWNhbE1vZGVsLS0+PGcgY2xhc3M9ImxpbmsiIGRhdGEtZW50aXR5LTE9Ik1vZGVsc0RCIiBkYXRhLWVudGl0eS0yPSJDbGluaWNhbE1vZGVsIiBkYXRhLXNvdXJjZS1saW5lPSI4NSIgZGF0YS11aWQ9ImxuazM5IiBpZD0ibGlua19Nb2RlbHNEQl9DbGluaWNhbE1vZGVsIj48cGF0aCBkPSJNMTI1LjcxLDkzLjA3IEM4MS40OCwxMTcuNTYgNiwxNjkuNTIgNiwyMzkgQzYsMjM5IDYsMjM5IDYsNjY2LjUgQzYsNzc4LjU3IDE1Mi42MjIzLDgxMi4zNDg1IDI1My4zNTIzLDgyMi44Mzg1IiBmaWxsPSJub25lIiBpZD0iTW9kZWxzREItdG8tQ2xpbmljYWxNb2RlbCIgc3R5bGU9InN0cm9rZTojMDAwMDAwO3N0cm9rZS13aWR0aDoxOyIvPjxwb2x5Z29uIGZpbGw9IiMwMDAwMDAiIHBvaW50cz0iMjU5LjMyLDgyMy40NiwyNTAuNzgyNyw4MTguNTQ5MywyNTQuMzQ2OSw4MjIuOTQyMSwyNDkuOTU0MSw4MjYuNTA2MywyNTkuMzIsODIzLjQ2IiBzdHlsZT0ic3Ryb2tlOiMwMDAwMDA7c3Ryb2tlLXdpZHRoOjE7Ii8+PHRleHQgZmlsbD0iIzAwMDAwMCIgZm9udC1mYW1pbHk9InNhbnMtc2VyaWYiIGZvbnQtc2l6ZT0iMTMiIGxlbmd0aEFkanVzdD0ic3BhY2luZyIgdGV4dExlbmd0aD0iNjUiIHg9IjciIHk9IjQ4NC4yODkxIj5Mb2FkIE1vZGVsPC90ZXh0PjwvZz48IS0tbGluayBNb2RlbHNEQiB0byBGZWF0dXJlU2NhbGluZy0tPjxnIGNsYXNzPSJsaW5rIiBkYXRhLWVudGl0eS0xPSJNb2RlbHNEQiIgZGF0YS1lbnRpdHktMj0iRmVhdHVyZVNjYWxpbmciIGRhdGEtc291cmNlLWxpbmU9Ijg2IiBkYXRhLXVpZD0ibG5rNDAiIGlkPSJsaW5rX01vZGVsc0RCX0ZlYXR1cmVTY2FsaW5nIj48cGF0aCBkPSJNMTU3Ljc4LDk4LjU5IEMxNjAuOTgsMTU4LjE3IDE3Ny4xMSwzMzAuNTYgMjU4LDQ0MSBDMzMyLjQ0LDU0Mi42NCA0NjIuNzAxMiw2MDguMzM5MiA1MzkuMjAxMiw2NDAuNTg5MiIgZmlsbD0ibm9uZSIgaWQ9Ik1vZGVsc0RCLXRvLUZlYXR1cmVTY2FsaW5nIiBzdHlsZT0ic3Ryb2tlOiMwMDAwMDA7c3Ryb2tlLXdpZHRoOjE7Ii8+PHBvbHlnb24gZmlsbD0iIzAwMDAwMCIgcG9pbnRzPSI1NDQuNzMsNjQyLjkyLDUzNy45OTA3LDYzNS43MzgsNTQwLjEyMjcsNjQwLjk3NzcsNTM0Ljg4Myw2NDMuMTA5Nyw1NDQuNzMsNjQyLjkyIiBzdHlsZT0ic3Ryb2tlOiMwMDAwMDA7c3Ryb2tlLXdpZHRoOjE7Ii8+PHRleHQgZmlsbD0iIzAwMDAwMCIgZm9udC1mYW1pbHk9InNhbnMtc2VyaWYiIGZvbnQtc2l6ZT0iMTMiIGxlbmd0aEFkanVzdD0ic3BhY2luZyIgdGV4dExlbmd0aD0iNzgiIHg9IjI1OSIgeT0iNDE2Ljc4OTEiPkxvYWQgU2NhbGVyczwvdGV4dD48L2c+PCEtLVNSQz1bWkxQVFp6ZXU1N3RGaHQwcE1mTUhJZktUcFJCSmdYZTlJZldZQ0xDNEl4aWh5TUFJMnFHYVRjSVJKa2JnX19qVXNxY20weEozMi1KVVMtd05wdEx1YlM4d09xMGN1dVRGVm1xY1l2WFN6T1Yza3hXTmw3OHozeEN1Vlk5Tnh3OHVWWFZ2aGJheTk1VVpLSl93aS15eF9lYWRheXpWak15cVlia2F3TThzZE0ya2sxVnRIbHFXYUJrQ2JMSkdXWUl5QTNhM2ZpWV8wSTQzY2ttc1drelAtZjdkTjFwQnIzdWtLWDNNVlhOWGZuLVhqSXk0VnhSNkxPeGl1M3l0a2UxNEtSUjl1TjlxcS1mZi1Edmp6RWxtQUxMcUhVTEZlamtYakNGVjNVd21WWnpNYWxEelVaY0dkTTB4cUVxV1lrdmtUQTNOdjk1Y3gzWEU2SG1kNnl3TDA1aGFjSThGWXQ1OGdESlZHTDFZOGhlMTRXd24zcDljdkx3NXZDRTdQY1p0endPVTl6MENMQ1BlSmlRNXZZdEFkREZLbjFpTjZfbGF1cF9jNlNpSTk5V0M4b3VBV3d4RHNnMkJSbWVQMExMeDBJSi1oV0hETENSUEJtaHcwYjkySmtRbUFWMlBRaVFJRlY4S1JQcjV6bWRLaktiZU9TUmt5dVMwOU1iYnZNQjlFbDV3ZElLUE9mZU82Y2VaZEFqdUFkWTJJSkFzVUxkNTVNXzl0NVFSSVlrbHpBYnJoajVVcmwzQVAydGRxTkNTajJkaDJBekNOWUVwSkV3bTJxWXBieW96NWU5WGNRZFdwRnYtNjcwa2d0NUxZM0NwUnFIbmNMbjNwaDBEb1ZQQnZXVWZtNGZBY3dpZk81VHNjUzg3QTMwRWNLbVUzR1FfZE9PX3h6S0IxQS1welY1OGZERzJNeDhsY1RwWnk3eEd1dWN2NWZ5ejFJNHZxcXY4YnNtNndDOGVnSzdBUWFnVUpUVlVOMmdYd1R4WXhDX1hHMl93QUVWRlAwTmc2UzFSLTZPN0lSVHh4cWdVbENUSTE5SE1lZjNRekdxM1RtcURubmt4UFpMN0RUTHQ1MlppOW1tMkRfR25MUXJQcEprcGJkV19vTHRPQWhCUGdLaWI3VzRReGdiVEt6cHJiUUpwbi15dHRKR2hoaUVXTFQ5UGloLTlzOVlGUzNaTGxmWTl5NkE1aHhOcWI1UTNEQ3lMbHNQZmR5UzlGOElYRDBCTTE2LV92V2FOcGQ1VHVsWHhMUDRTWTNhZ0x3blVGcHlYdVR3T2NsblQyMERqanpydzhaUGR3SVlWekREbE1HOVFFNXZzSlNOdEsxRlF5LUFDc2M0VF8yVVdrVGdzNHNFNlVhX0VoUzE0Z3l1eVhKd2tWTGVOV0lWeFNINXZBWG0zREplbUVfSVFGNzY1b2VKbFBPdWxSV3RRbVM1VFB1UC04aEJETFg2LUZoZGVndEVKdjlqTFNTNTVrU0tfMVBpM01UVWdIcldkMUlPcFROWDN5Qk1jempwLXJiTWpHQm1YZTlBdHJtWHhwZDJRZ0x3YzdBWkdTZ1kzMTNYVGVhaTlNV0t2NW91WE5xNlJhUFFPaWtwdnlsTHhUN005Zi1ORVJWSlJqSjd4U2t0cWg3cjB6Vk9aa3AwcEJhNml5TlFZQjg1czlJa2s1MnpxQVZmVTl3SXd4Nl9VSGRYM0toYWI1OUNVVmswUzEyUDBtRGd5c29OUWlLeHlHd0o3TnBld0hTWk13YWdxUmtLd3lfeTBdLS0+PC9nPjwvc3ZnPg==;" vertex="1" parent="1">
            <mxGeometry x="-10" y="20" width="1148" height="1416" as="geometry" />
          </mxCell>
        </UserObject>
      </root>
    </mxGraphModel>
  </diagram>
</mxfile>
